<svg width="1440" height="1000" viewBox="0 0 1440 1000" fill="none" xmlns="http://www.w3.org/2000/svg">
<mask id="mask0_1594_8704" style="mask-type:alpha" maskUnits="userSpaceOnUse" x="0" y="0" width="1440" height="1000">
<rect opacity="0.6" width="1440" height="1000" fill="url(#paint0_radial_1594_8704)"/>
</mask>
<g mask="url(#mask0_1594_8704)">
<g opacity="0.3">
<path d="M20 -372V1328" stroke="white"/>
<path d="M60 -372V1328" stroke="white"/>
<path d="M100 -372V1328" stroke="white"/>
<path d="M140 -372V1328" stroke="white"/>
<path d="M180 -372V1328" stroke="white"/>
<path d="M220 -372V1328" stroke="white"/>
<path d="M260 -372V1328" stroke="white"/>
<path d="M300 -372V1328" stroke="white"/>
<path d="M340 -372V1328" stroke="white"/>
<path d="M380 -372V1328" stroke="white"/>
<path d="M420 -372V1328" stroke="white"/>
<path d="M460 -372V1328" stroke="white"/>
<path d="M500 -372V1328" stroke="white"/>
<path d="M540 -372V1328" stroke="white"/>
<path d="M580 -372V1328" stroke="white"/>
<path d="M620 -372V1328" stroke="white"/>
<path d="M660 -372V1328" stroke="white"/>
<path d="M700 -372V1328" stroke="white"/>
<path d="M740 -372V1328" stroke="white"/>
<path d="M780 -372V1328" stroke="white"/>
<path d="M820 -372V1328" stroke="white"/>
<path d="M860 -372V1328" stroke="white"/>
<path d="M900 -372V1328" stroke="white"/>
<path d="M940 -372V1328" stroke="white"/>
<path d="M980 -372V1328" stroke="white"/>
<path d="M1020 -372V1328" stroke="white"/>
<path d="M1060 -372V1328" stroke="white"/>
<path d="M1100 -372V1328" stroke="white"/>
<path d="M1140 -372V1328" stroke="white"/>
<path d="M1180 -372V1328" stroke="white"/>
<path d="M1220 -372V1328" stroke="white"/>
<path d="M1260 -372V1328" stroke="white"/>
<path d="M1300 -372V1328" stroke="white"/>
<path d="M1340 -372V1328" stroke="white"/>
<path d="M1380 -372V1328" stroke="white"/>
<path d="M1420 -372V1328" stroke="white"/>
</g>
</g>
<defs>
<radialGradient id="paint0_radial_1594_8704" cx="0" cy="0" r="1" gradientUnits="userSpaceOnUse" gradientTransform="translate(720 500) rotate(90) scale(324 466.56)">
<stop stop-color="#C4C4C4"/>
<stop offset="1" stop-color="#C4C4C4" stop-opacity="0"/>
</radialGradient>
</defs>
</svg>
