<svg width="1920" height="1000" viewBox="0 0 1920 1000" fill="none" xmlns="http://www.w3.org/2000/svg">
<g clip-path="url(#clip0_1594_8703)">
<rect width="1920" height="1000" fill="#030D22"/>
<mask id="mask0_1594_8703" style="mask-type:alpha" maskUnits="userSpaceOnUse" x="240" y="0" width="1440" height="1000">
<rect opacity="0.6" x="240" width="1440" height="1000" fill="url(#paint0_radial_1594_8703)"/>
</mask>
<g mask="url(#mask0_1594_8703)">
<g opacity="0.3">
<path d="M260 -372V1328" stroke="white"/>
<path d="M300 -372V1328" stroke="white"/>
<path d="M340 -372V1328" stroke="white"/>
<path d="M380 -372V1328" stroke="white"/>
<path d="M420 -372V1328" stroke="white"/>
<path d="M460 -372V1328" stroke="white"/>
<path d="M500 -372V1328" stroke="white"/>
<path d="M540 -372V1328" stroke="white"/>
<path d="M580 -372V1328" stroke="white"/>
<path d="M620 -372V1328" stroke="white"/>
<path d="M660 -372V1328" stroke="white"/>
<path d="M700 -372V1328" stroke="white"/>
<path d="M740 -372V1328" stroke="white"/>
<path d="M780 -372V1328" stroke="white"/>
<path d="M820 -372V1328" stroke="white"/>
<path d="M860 -372V1328" stroke="white"/>
<path d="M900 -372V1328" stroke="white"/>
<path d="M940 -372V1328" stroke="white"/>
<path d="M980 -372V1328" stroke="white"/>
<path d="M1020 -372V1328" stroke="white"/>
<path d="M1060 -372V1328" stroke="white"/>
<path d="M1100 -372V1328" stroke="white"/>
<path d="M1140 -372V1328" stroke="white"/>
<path d="M1180 -372V1328" stroke="white"/>
<path d="M1220 -372V1328" stroke="white"/>
<path d="M1260 -372V1328" stroke="white"/>
<path d="M1300 -372V1328" stroke="white"/>
<path d="M1340 -372V1328" stroke="white"/>
<path d="M1380 -372V1328" stroke="white"/>
<path d="M1420 -372V1328" stroke="white"/>
<path d="M1460 -372V1328" stroke="white"/>
<path d="M1500 -372V1328" stroke="white"/>
<path d="M1540 -372V1328" stroke="white"/>
<path d="M1580 -372V1328" stroke="white"/>
<path d="M1620 -372V1328" stroke="white"/>
<path d="M1660 -372V1328" stroke="white"/>
</g>
</g>
<g opacity="0.44" filter="url(#filter0_f_1594_8703)">
<circle cx="891.5" cy="386.5" r="221.5" fill="url(#paint1_linear_1594_8703)"/>
</g>
<g opacity="0.44" filter="url(#filter1_f_1594_8703)">
<circle cx="1115.5" cy="594.5" r="133.5" fill="url(#paint2_linear_1594_8703)"/>
</g>
<g opacity="0.44" filter="url(#filter2_f_1594_8703)">
<ellipse cx="1038.5" cy="542" rx="197.5" ry="198" fill="url(#paint3_linear_1594_8703)"/>
</g>
<g opacity="0.44" filter="url(#filter3_f_1594_8703)">
<ellipse cx="1051.5" cy="328" rx="197.5" ry="198" fill="#005BFF"/>
</g>
</g>
<defs>
<filter id="filter0_f_1594_8703" x="511" y="6" width="761" height="761" filterUnits="userSpaceOnUse" color-interpolation-filters="sRGB">
<feFlood flood-opacity="0" result="BackgroundImageFix"/>
<feBlend mode="normal" in="SourceGraphic" in2="BackgroundImageFix" result="shape"/>
<feGaussianBlur stdDeviation="79.5" result="effect1_foregroundBlur_1594_8703"/>
</filter>
<filter id="filter1_f_1594_8703" x="832" y="311" width="567" height="567" filterUnits="userSpaceOnUse" color-interpolation-filters="sRGB">
<feFlood flood-opacity="0" result="BackgroundImageFix"/>
<feBlend mode="normal" in="SourceGraphic" in2="BackgroundImageFix" result="shape"/>
<feGaussianBlur stdDeviation="75" result="effect1_foregroundBlur_1594_8703"/>
</filter>
<filter id="filter2_f_1594_8703" x="441" y="-56" width="1195" height="1196" filterUnits="userSpaceOnUse" color-interpolation-filters="sRGB">
<feFlood flood-opacity="0" result="BackgroundImageFix"/>
<feBlend mode="normal" in="SourceGraphic" in2="BackgroundImageFix" result="shape"/>
<feGaussianBlur stdDeviation="200" result="effect1_foregroundBlur_1594_8703"/>
</filter>
<filter id="filter3_f_1594_8703" x="604" y="-120" width="895" height="896" filterUnits="userSpaceOnUse" color-interpolation-filters="sRGB">
<feFlood flood-opacity="0" result="BackgroundImageFix"/>
<feBlend mode="normal" in="SourceGraphic" in2="BackgroundImageFix" result="shape"/>
<feGaussianBlur stdDeviation="125" result="effect1_foregroundBlur_1594_8703"/>
</filter>
<radialGradient id="paint0_radial_1594_8703" cx="0" cy="0" r="1" gradientUnits="userSpaceOnUse" gradientTransform="translate(960 500) rotate(90) scale(324 466.56)">
<stop stop-color="#C4C4C4"/>
<stop offset="1" stop-color="#C4C4C4" stop-opacity="0"/>
</radialGradient>
<linearGradient id="paint1_linear_1594_8703" x1="1016.14" y1="550.184" x2="720.845" y2="162.435" gradientUnits="userSpaceOnUse">
<stop stop-color="#007FEF"/>
<stop offset="1" stop-color="#00E3B6"/>
</linearGradient>
<linearGradient id="paint2_linear_1594_8703" x1="1190.62" y1="693.154" x2="1012.64" y2="459.454" gradientUnits="userSpaceOnUse">
<stop stop-color="#007FEF"/>
<stop offset="1" stop-color="#00E3B6"/>
</linearGradient>
<linearGradient id="paint3_linear_1594_8703" x1="1149.63" y1="688.318" x2="885.493" y2="342.351" gradientUnits="userSpaceOnUse">
<stop stop-color="#007FEF"/>
<stop offset="1" stop-color="#00E3B6"/>
</linearGradient>
<clipPath id="clip0_1594_8703">
<rect width="1920" height="1000" fill="white"/>
</clipPath>
</defs>
</svg>
