<svg width="15" height="14" viewBox="0 0 15 14" fill="none" xmlns="http://www.w3.org/2000/svg">
<path fill-rule="evenodd" clip-rule="evenodd" d="M8.95831 0.583333C8.95831 0.261167 9.21948 0 9.54165 0H13.9166C14.2388 0 14.5 0.261167 14.5 0.583333V4.95833C14.5 5.2805 14.2388 5.54167 13.9166 5.54167C13.5945 5.54167 13.3333 5.2805 13.3333 4.95833V1.16667H9.54165C9.21948 1.16667 8.95831 0.905499 8.95831 0.583333Z" fill="#2D98F5"/>
<path fill-rule="evenodd" clip-rule="evenodd" d="M14.3291 0.170854C14.5569 0.39866 14.5569 0.768006 14.3291 0.995812L9.07913 6.24581C8.85132 6.47362 8.48197 6.47362 8.25417 6.24581C8.02636 6.01801 8.02636 5.64866 8.25417 5.42085L13.5042 0.170854C13.732 -0.0569515 14.1013 -0.0569515 14.3291 0.170854Z" fill="#2D98F5"/>
<path fill-rule="evenodd" clip-rule="evenodd" d="M0.841709 2.67504C1.0605 2.45625 1.35725 2.33333 1.66667 2.33333H6.33333C6.6555 2.33333 6.91667 2.5945 6.91667 2.91667C6.91667 3.23883 6.6555 3.5 6.33333 3.5L1.66667 3.5L1.66667 12.8333H11V8.16667C11 7.8445 11.2612 7.58333 11.5833 7.58333C11.9055 7.58333 12.1667 7.8445 12.1667 8.16667V12.8333C12.1667 13.1428 12.0438 13.4395 11.825 13.6583C11.6062 13.8771 11.3094 14 11 14H1.66667C1.35725 14 1.0605 13.8771 0.841709 13.6583C0.622916 13.4395 0.5 13.1428 0.5 12.8333V3.5C0.5 3.19058 0.622917 2.89384 0.841709 2.67504Z" fill="#2D98F5"/>
</svg>
