<svg width="54" height="54" viewBox="0 0 54 54" fill="none"
  xmlns="http://www.w3.org/2000/svg">
  <rect width="54" height="54" rx="27" fill="url(#paint0_linear_301_1068)"/>
  <path d="M42.5427 29.8065L39.4843 25.4871C38.9788 24.7751 37.9922 24.6027 37.2764 25.1098L32.9578 28.1675C32.245 28.6723 32.075 29.6605 32.5805 30.3741C33.0861 31.0869 34.0727 31.2577 34.7885 30.7514L36.2349 29.7273C35.9242 30.7793 35.4494 31.7798 34.7869 32.6842C32.9438 35.2007 30.1064 36.6433 27.0001 36.6433C24.1805 36.6433 21.5225 35.4164 19.7088 33.2771C19.1445 32.6123 18.1456 32.5303 17.4768 33.0939C16.8104 33.6598 16.7277 34.6587 17.2936 35.326C19.7104 38.1756 23.2481 39.81 27.0001 39.81C31.0667 39.81 34.9323 37.8455 37.3413 34.5552C38.2166 33.3604 38.8469 32.0399 39.2603 30.6513L39.9574 31.636C40.2667 32.072 40.7553 32.3048 41.2517 32.3048C41.5671 32.3048 41.8872 32.2104 42.1654 32.0133C42.8782 31.5081 43.0483 30.5199 42.5427 29.8065Z" fill="white"/>
  <path d="M21.4198 23.6261C20.9134 22.9118 19.9252 22.7424 19.2124 23.2481L17.7657 24.2722C18.0761 23.2199 18.5508 22.2198 19.2124 21.3161C21.0556 18.8004 23.8937 17.357 27.0001 17.357C29.8204 17.357 32.4784 18.5839 34.2921 20.7232C34.858 21.3888 35.8569 21.4723 36.5233 20.9064C37.1913 20.3405 37.2732 19.3416 36.7073 18.6744C34.2905 15.8247 30.7527 14.1904 27.0001 14.1904C22.9342 14.1904 19.0679 16.1548 16.6582 19.4451C15.7834 20.6396 15.1534 21.9604 14.7401 23.3498L14.0427 22.3645C13.5363 21.6501 12.549 21.4808 11.8355 21.9864C11.1221 22.4919 10.9527 23.4801 11.4574 24.1935L14.5152 28.5129C14.8244 28.9489 15.313 29.1817 15.8094 29.1817C16.1256 29.1817 16.4449 29.0873 16.7225 28.891L21.0418 25.8332C21.7553 25.3277 21.9245 24.3397 21.4198 23.6261Z" fill="white"/>
  <defs>
    <linearGradient id="paint0_linear_301_1068" x1="19.5" y1="13.5" x2="39.5" y2="63.5" gradientUnits="userSpaceOnUse">
      <stop stop-color="#00E4D6"/>
      <stop offset="1" stop-color="#10016B"/>
    </linearGradient>
  </defs>
</svg>
