<svg width="54" height="54" viewBox="0 0 54 54" fill="none"
  xmlns="http://www.w3.org/2000/svg">
  <circle cx="27" cy="27" r="27" fill="#7C8BA8"/>
  <path d="M36.2762 24.2042H46.0831C46.2016 24.2043 46.3176 24.2381 46.4176 24.3017C46.5175 24.3653 46.5973 24.456 46.6476 24.5633C46.6978 24.6706 46.7164 24.79 46.7013 24.9075C46.6861 25.025 46.6378 25.1358 46.562 25.2268L41.6585 31.113C41.6 31.1832 41.5268 31.2396 41.444 31.2784C41.3613 31.3171 41.271 31.3372 41.1796 31.3372C41.0883 31.3372 40.998 31.3171 40.9153 31.2784C40.8325 31.2396 40.7593 31.1832 40.7008 31.113L35.7973 25.2268C35.7215 25.1358 35.6732 25.025 35.658 24.9075C35.6428 24.79 35.6615 24.6706 35.7117 24.5633C35.762 24.456 35.8418 24.3653 35.9417 24.3017C36.0417 24.2381 36.1577 24.2043 36.2762 24.2042ZM8.84071 29.1925H18.6476C18.7661 29.1925 18.8821 29.1587 18.9821 29.0951C19.0821 29.0315 19.1618 28.9407 19.2121 28.8334C19.2623 28.7261 19.281 28.6067 19.2658 28.4892C19.2507 28.3717 19.2023 28.261 19.1265 28.1699L14.223 22.2838C14.1645 22.2136 14.0913 22.1571 14.0086 22.1184C13.9258 22.0797 13.8355 22.0596 13.7442 22.0596C13.6528 22.0596 13.5625 22.0797 13.4798 22.1184C13.397 22.1571 13.3238 22.2136 13.2653 22.2838L8.36183 28.1699C8.28601 28.261 8.23769 28.3717 8.22253 28.4892C8.20737 28.6067 8.22601 28.7261 8.27626 28.8334C8.3265 28.9407 8.40628 29.0315 8.50625 29.0951C8.60621 29.1587 8.72223 29.1925 8.84071 29.1925Z" fill="#030D22"/>
  <path fill-rule="evenodd" clip-rule="evenodd" d="M27.4619 14.2276C23.591 14.2276 20.1291 15.991 17.842 18.762C17.7399 18.8943 17.6122 19.0048 17.4665 19.0869C17.3208 19.1689 17.1601 19.2208 16.994 19.2395C16.8278 19.2581 16.6596 19.2432 16.4994 19.1956C16.3391 19.148 16.1901 19.0686 16.0611 18.9622C15.9321 18.8558 15.8259 18.7246 15.7486 18.5763C15.6714 18.428 15.6248 18.2657 15.6115 18.0991C15.5983 17.9324 15.6187 17.7648 15.6715 17.6061C15.7243 17.4475 15.8085 17.3011 15.919 17.1757C17.7452 14.9647 20.168 13.3248 22.8993 12.451C25.6305 11.5771 28.5553 11.5062 31.3257 12.2465C34.0962 12.9869 36.5956 14.5074 38.5269 16.6272C40.4581 18.747 41.7399 21.377 42.2197 24.2042H39.6831C39.1073 21.3878 37.5765 18.8567 35.3497 17.0389C33.1228 15.221 30.3365 14.228 27.4619 14.2276ZM15.2406 29.1924C15.7128 31.4986 16.8278 33.6241 18.4568 35.3234C20.0857 37.0227 22.1623 38.2264 24.4464 38.7956C26.7305 39.3647 29.1291 39.276 31.3649 38.5397C33.6008 37.8034 35.5827 36.4496 37.0818 34.6346C37.1839 34.5023 37.3116 34.3918 37.4573 34.3098C37.603 34.2277 37.7636 34.1758 37.9298 34.1572C38.0959 34.1385 38.2641 34.1534 38.4244 34.201C38.5847 34.2487 38.7337 34.328 38.8627 34.4344C38.9917 34.5408 39.0979 34.672 39.1751 34.8203C39.2524 34.9686 39.299 35.1309 39.3123 35.2976C39.3255 35.4642 39.3051 35.6319 39.2523 35.7905C39.1995 35.9491 39.1153 36.0955 39.0047 36.2209C37.1786 38.4319 34.7558 40.0718 32.0245 40.9457C29.2932 41.8195 26.3685 41.8905 23.598 41.1501C20.8276 40.4097 18.3281 38.8892 16.3969 36.7694C14.4656 34.6496 13.1839 32.0197 12.7041 29.1924H15.2406Z" fill="#030D22"/>
</svg>
