<svg width="17" height="20" viewBox="0 0 17 20" fill="none" xmlns="http://www.w3.org/2000/svg">
<path d="M15.4976 14.286L15.4976 11.7838L16.499 11.7838L16.499 14.286C16.499 15.1152 15.8268 15.7874 14.9976 15.7874L4.40011 15.7874L3.18927 15.7874L4.04732 16.6417L5.99386 18.5798L5.28073 19.2929L1.6325 15.6447C1.63233 15.6445 1.63216 15.6443 1.63199 15.6441C1.43851 15.449 1.43851 15.1344 1.63199 14.9392C1.63216 14.939 1.63233 14.9388 1.6325 14.9387L5.28073 11.2904L5.98462 11.9943L4.04655 13.9324L3.193 14.786L4.40011 14.786L14.9976 14.786L15.4976 14.786L15.4976 14.286Z" stroke="white"/>
<path d="M2.98927 5.78041L2.48927 5.78041L2.48927 6.28041L2.48927 8.78254L1.48786 8.78254L1.48786 6.28041C1.48786 5.45121 2.16007 4.779 2.98927 4.779L13.5868 4.77899L14.7902 4.77899L13.9411 3.92621L12.0015 1.97814L12.7061 1.27348L16.3544 4.9217C16.3545 4.92185 16.3547 4.922 16.3548 4.92215C16.5484 5.11736 16.5484 5.43205 16.3548 5.62725C16.3547 5.6274 16.3545 5.62755 16.3544 5.6277L12.7061 9.27593L12.0023 8.57203L13.9403 6.63396L14.7939 5.78041L13.5868 5.78041L2.98927 5.78041Z" stroke="white"/>
</svg>
