<svg width="20" height="17" viewBox="0 0 20 17" fill="none" xmlns="http://www.w3.org/2000/svg">
<path d="M13.7195 1.50215L11.2174 1.50215L11.2174 0.500732L13.7195 0.500732C14.5488 0.500732 15.221 1.17295 15.221 2.00215L15.221 12.5996L15.221 13.8105L16.0753 12.9524L18.0134 11.0059L18.7265 11.719L15.0783 15.3673C15.0781 15.3674 15.0779 15.3676 15.0777 15.3678C14.8826 15.5612 14.568 15.5612 14.3728 15.3678C14.3726 15.3676 14.3724 15.3674 14.3723 15.3673L10.724 11.719L11.4279 11.0151L13.366 12.9532L14.2195 13.8068L14.2195 12.5996L14.2195 2.00215L14.2195 1.50215L13.7195 1.50215Z" stroke="#0197E2"/>
<path d="M5.21413 14.0107L5.21413 14.5107L5.71413 14.5107L8.21625 14.5107L8.21625 15.5121L5.71413 15.5121C4.88492 15.5121 4.21271 14.8399 4.21271 14.0107L4.21271 3.41317L4.21271 2.20977L3.35993 3.05884L1.41185 4.99845L0.70719 4.29379L4.35542 0.64556C4.35557 0.645411 4.35572 0.645262 4.35587 0.645114C4.55107 0.451547 4.86576 0.451547 5.06097 0.645114C5.06111 0.645263 5.06126 0.645411 5.06141 0.64556L8.70964 4.29379L8.00575 4.99768L6.06768 3.05961L5.21413 2.20606L5.21413 3.41317L5.21413 14.0107Z" stroke="#0197E2"/>
</svg>
