<svg width="17" height="18" viewBox="0 0 17 18" fill="none" xmlns="http://www.w3.org/2000/svg">
<path d="M16.5601 9.39861C16.5637 9.39494 16.5637 9.39494 16.5674 9.39126C16.5784 9.37657 16.5894 9.36554 16.5968 9.35085C16.6005 9.34717 16.6005 9.3435 16.6041 9.33982C16.6115 9.32513 16.6225 9.31043 16.6299 9.29573C16.6299 9.29206 16.6335 9.28838 16.6335 9.28838C16.6409 9.27369 16.6482 9.25899 16.6556 9.24062C16.6556 9.23694 16.6556 9.23694 16.6593 9.23327C16.6666 9.21857 16.6703 9.2002 16.6776 9.18183C16.6776 9.17816 16.6776 9.17448 16.6813 9.17448C16.685 9.15611 16.6923 9.14142 16.6923 9.12304C16.6923 9.1157 16.6923 9.11202 16.696 9.10467C16.6997 9.08998 16.6997 9.07528 16.7033 9.06058C16.707 9.03854 16.707 9.02017 16.707 8.99812C16.707 8.97608 16.707 8.9577 16.7033 8.93566C16.7033 8.92096 16.6997 8.90627 16.696 8.89157C16.696 8.88422 16.696 8.88055 16.6923 8.8732C16.6886 8.85483 16.685 8.84013 16.6813 8.82176C16.6813 8.81808 16.6813 8.81441 16.6776 8.81441C16.674 8.79604 16.6666 8.78134 16.6593 8.76297C16.6593 8.7593 16.6593 8.7593 16.6556 8.75562C16.6482 8.74093 16.6409 8.72255 16.6335 8.70786C16.6335 8.70418 16.6299 8.70051 16.6299 8.70051C16.6225 8.68581 16.6152 8.67112 16.6041 8.65642C16.6005 8.65274 16.6005 8.64907 16.5968 8.6454C16.5858 8.6307 16.5784 8.616 16.5674 8.60498C16.5637 8.6013 16.5637 8.6013 16.5601 8.59763C16.5454 8.58293 16.5343 8.56456 16.516 8.54987L12.8822 4.91974C12.636 4.67356 12.2355 4.67356 11.9893 4.91974C11.7431 5.16591 11.7431 5.5664 11.9893 5.81257L14.5466 8.36983H4.38001C4.03096 8.36983 3.74805 8.65274 3.74805 8.99812C3.74805 9.34717 4.03096 9.63009 4.38001 9.63009H14.5503L12.0114 12.169C11.7652 12.4151 11.7652 12.8156 12.0114 13.0618C12.1326 13.1831 12.2943 13.2455 12.4559 13.2455C12.6176 13.2455 12.7793 13.1831 12.9005 13.0618L16.5123 9.45005C16.5307 9.428 16.5454 9.41331 16.5601 9.39861Z" fill="#0197E2"/>
<path d="M3.4207 1.26026H8.1237C8.47275 1.26026 8.75566 0.977342 8.75566 0.631966C8.75566 0.282915 8.47275 0 8.1237 0H3.4207C1.53582 0 0 1.53582 0 3.4207V14.5793C0 16.4642 1.53582 18 3.4207 18H8.04654C8.39559 18 8.67851 17.7171 8.67851 17.3717C8.67851 17.0227 8.39559 16.7397 8.04654 16.7397H3.4207C2.23025 16.7397 1.26026 15.7697 1.26026 14.5793V3.4207C1.26393 2.22658 2.23025 1.26026 3.4207 1.26026Z" fill="#0197E2"/>
</svg>
