<svg width="19" height="19" viewBox="0 0 19 19" fill="none" xmlns="http://www.w3.org/2000/svg">
<path d="M17.74 11.3014L16.0361 9.96895C16.0585 9.76347 16.0762 9.52327 16.0762 9.26913C16.0762 9.01499 16.0577 8.77479 16.0361 8.56931L17.7416 7.23611C18.0583 6.98585 18.1456 6.54169 17.9432 6.17172L16.1712 3.10595C15.9773 2.75297 15.5425 2.59152 15.1462 2.73751L13.1356 3.54468C12.7509 3.26661 12.347 3.0318 11.929 2.8441L11.6232 0.711442C11.573 0.305881 11.2208 0 10.8044 0H7.25125C6.8349 0 6.48267 0.305881 6.43325 0.703693L6.12661 2.8441C5.72184 3.02717 5.32407 3.25813 4.92162 3.54548L2.90559 2.73599C2.52016 2.58536 2.08139 2.74449 1.8883 3.09824L0.114022 6.16864C-0.0952942 6.52243 -0.00955475 6.98125 0.314865 7.23767L2.01883 8.56935C1.99178 8.83044 1.97867 9.05674 1.97867 9.26917C1.97867 9.4816 1.99182 9.70789 2.01731 9.96898L0.311787 11.303C-0.00415982 11.5532 -0.0906959 11.9973 0.110908 12.3673L1.88287 15.4331C2.0752 15.7853 2.50929 15.946 2.90787 15.8015L4.91851 14.9944C5.30318 15.2717 5.70794 15.5065 6.12581 15.695L6.43169 17.8269C6.48191 18.2324 6.83414 18.5383 7.25045 18.5383H10.8036C11.22 18.5383 11.5722 18.2324 11.6216 17.8346L11.9283 15.695C12.333 15.5119 12.7308 15.2809 13.1332 14.9936L15.1493 15.8031C15.5332 15.9521 15.9735 15.7946 16.1666 15.4408L17.9478 12.3596C18.1448 11.9981 18.0583 11.554 17.74 11.3014ZM17.2727 11.9811L15.4328 15.0847L13.2213 14.1964C13.0962 14.1462 12.9541 14.1655 12.8459 14.2459C12.367 14.6043 11.9044 14.8738 11.4301 15.0677C11.3034 15.1195 11.213 15.2346 11.1937 15.3705L10.8036 17.7658L7.19871 17.7249L6.86115 15.3713C6.84106 15.2353 6.75148 15.1203 6.62479 15.0685C6.13121 14.8661 5.65616 14.5904 5.21201 14.2489C5.14325 14.1956 5.05983 14.1686 4.9764 14.1686C4.92774 14.1686 4.87908 14.1771 4.83197 14.1964L2.55716 15.0546L0.785201 11.9888C0.76898 11.9587 0.772057 11.9239 0.790596 11.9092L2.66528 10.444C2.77187 10.3605 2.82749 10.2261 2.81051 10.0917C2.76956 9.76807 2.75102 9.50622 2.75102 9.26909C2.75102 9.03197 2.77032 8.77088 2.81051 8.44646C2.82749 8.31129 2.77187 8.17765 2.66528 8.09423L0.781399 6.55791L2.62132 3.45431L4.83277 4.34259C4.95866 4.39357 5.10002 4.37427 5.20893 4.29316C5.68705 3.93398 6.15051 3.66518 6.62479 3.47129C6.75148 3.41875 6.84106 3.30368 6.86039 3.16849L7.25125 0.772415L10.8569 0.814126L11.1937 3.16849C11.2138 3.30444 11.3034 3.41951 11.4301 3.47129C11.9229 3.67289 12.3979 3.94865 12.8429 4.29085C12.9518 4.37427 13.0947 4.39436 13.2221 4.34259L15.4969 3.48443L17.2689 6.5502C17.2851 6.58032 17.282 6.61432 17.2635 6.62898L15.3888 8.09427C15.2822 8.17769 15.2266 8.31133 15.2436 8.44649C15.273 8.6813 15.3031 8.96325 15.3031 9.26913C15.3031 9.57577 15.273 9.85696 15.2436 10.0918C15.2266 10.2262 15.2822 10.3606 15.3888 10.444L17.2612 11.9085C17.2812 11.9247 17.2851 11.9595 17.2727 11.9811Z" fill="#0197E2"/>
<path d="M8.86215 5.40686C6.73257 5.40686 5 7.13943 5 9.26901C5 11.3986 6.73257 13.1312 8.86215 13.1312C10.9917 13.1312 12.7243 11.3986 12.7243 9.26901C12.7243 7.13943 10.9917 5.40686 8.86215 5.40686ZM8.86215 12.3587C7.15819 12.3587 5.77245 10.973 5.77245 9.26901C5.77245 7.56505 7.15819 6.17931 8.86215 6.17931C10.5661 6.17931 11.9518 7.56505 11.9518 9.26901C11.9518 10.973 10.5661 12.3587 8.86215 12.3587Z" fill="#0197E2"/>
</svg>
