<svg width="43" height="42" viewBox="0 0 43 42" fill="none" xmlns="http://www.w3.org/2000/svg">
<path d="M21.3965 42C32.9945 42 42.3965 32.598 42.3965 21C42.3965 9.40202 32.9945 0 21.3965 0C9.7985 0 0.396484 9.40202 0.396484 21C0.396484 32.598 9.7985 42 21.3965 42Z" fill="url(#paint0_linear_1495_11412)"/>
<path d="M29.7637 13.3301C30.1487 13.3301 30.4609 13.0179 30.4609 12.6328C30.4609 12.2477 30.1487 11.9355 29.7637 11.9355C29.3786 11.9355 29.0664 12.2477 29.0664 12.6328C29.0664 13.0179 29.3786 13.3301 29.7637 13.3301ZM13.7266 18.2109C13.7266 17.8258 13.4144 17.5137 13.0293 17.5137C12.6442 17.5137 12.332 17.8258 12.332 18.2109C12.332 18.596 12.6442 18.9082 13.0293 18.9082C13.4144 18.9082 13.7266 18.596 13.7266 18.2109ZM25.5801 21.6973H17.2129C16.8275 21.6973 16.5156 22.0091 16.5156 22.3945V32.8535H26.2773V22.3945C26.2773 22.0091 25.9655 21.6973 25.5801 21.6973ZM22.791 30.0645H20.002C19.6166 30.0645 19.3047 29.7526 19.3047 29.3672C19.3047 28.9818 19.6166 28.6699 20.002 28.6699H20.6992V25.8809H20.002C19.6166 25.8809 19.3047 25.569 19.3047 25.1836C19.3047 24.7982 19.6166 24.4863 20.002 24.4863H21.3965C21.7819 24.4863 22.0938 24.7982 22.0938 25.1836V28.6699H22.791C23.1764 28.6699 23.4883 28.9818 23.4883 29.3672C23.4883 29.7526 23.1764 30.0645 22.791 30.0645ZM27.6719 18.2109C27.6719 18.5963 27.9838 18.9082 28.3691 18.9082C28.7545 18.9082 29.0664 18.5963 29.0664 18.2109V17.5137H29.7637C30.1491 17.5137 30.4609 17.2018 30.4609 16.8164C30.4609 16.431 30.1491 16.1191 29.7637 16.1191H29.0664V15.4219C29.0664 15.0365 28.7545 14.7246 28.3691 14.7246C27.9838 14.7246 27.6719 15.0365 27.6719 15.4219V16.1191H26.9746C26.5892 16.1191 26.2773 16.431 26.2773 16.8164C26.2773 17.2018 26.5892 17.5137 26.9746 17.5137H27.6719V18.2109ZM15.8184 13.3301H15.1211V12.6328C15.1211 12.2474 14.8092 11.9355 14.4238 11.9355C14.0384 11.9355 13.7266 12.2474 13.7266 12.6328V13.3301H13.0293C12.6439 13.3301 12.332 13.642 12.332 14.0273C12.332 14.4127 12.6439 14.7246 13.0293 14.7246H13.7266V15.4219C13.7266 15.8073 14.0384 16.1191 14.4238 16.1191C14.8092 16.1191 15.1211 15.8073 15.1211 15.4219V14.7246H15.8184C16.2037 14.7246 16.5156 14.4127 16.5156 14.0273C16.5156 13.642 16.2037 13.3301 15.8184 13.3301ZM20.0064 13.6232C18.7748 14.1616 17.9102 15.3887 17.9102 16.8164C17.9102 18.7386 19.4742 20.3027 21.3965 20.3027C23.3187 20.3027 24.8828 18.7386 24.8828 16.8164C24.8828 15.3887 24.0181 14.1616 22.7866 13.6232L26.0731 10.3367C26.3454 10.0643 26.3454 9.62308 26.0731 9.35066C25.8007 9.07823 25.3595 9.07831 25.0871 9.35066L21.3965 13.0413L17.7059 9.35074C17.4336 9.0784 16.9923 9.0784 16.7199 9.35074C16.4475 9.62308 16.4475 10.0643 16.7199 10.3368L20.0064 13.6232ZM21.3965 16.1191C21.7815 16.1191 22.0938 16.4313 22.0938 16.8164C22.0938 17.2015 21.7815 17.5137 21.3965 17.5137C21.0114 17.5137 20.6992 17.2015 20.6992 16.8164C20.6992 16.4313 21.0114 16.1191 21.3965 16.1191ZM31.1582 25.8809H27.6719V32.8535H31.1582C31.5436 32.8535 31.8555 32.5416 31.8555 32.1562V26.5781C31.8555 26.1927 31.5436 25.8809 31.1582 25.8809ZM10.9375 25.1836V32.1562C10.9375 32.5416 11.2494 32.8535 11.6348 32.8535H15.1211V24.4863H11.6348C11.2494 24.4863 10.9375 24.7982 10.9375 25.1836Z" fill="url(#paint1_linear_1495_11412)"/>
<defs>
<linearGradient id="paint0_linear_1495_11412" x1="21.3965" y1="42" x2="21.3965" y2="0" gradientUnits="userSpaceOnUse">
<stop stop-color="#ADDCFF"/>
<stop offset="0.5028" stop-color="#EAF6FF"/>
<stop offset="1" stop-color="#EAF6FF"/>
</linearGradient>
<linearGradient id="paint1_linear_1495_11412" x1="21.3965" y1="32.8535" x2="21.3965" y2="9.14648" gradientUnits="userSpaceOnUse">
<stop stop-color="#00C0FF"/>
<stop offset="1" stop-color="#5558FF"/>
</linearGradient>
</defs>
</svg>
