<svg width="32" height="32" viewBox="0 0 32 32" fill="none" xmlns="http://www.w3.org/2000/svg">
<path d="M32 15.9999C32 24.8365 24.8367 32 16.0001 32C7.16344 32 0 24.8365 0 15.9999C0 7.1634 7.16344 0 16.0001 0C24.8366 0 32 7.1634 32 15.9999Z" fill="#93A6F9"/>
<path d="M15.8021 6L15.6648 6.46677V20.0114L15.8021 20.1485L22.0894 16.4321L15.8021 6Z" fill="white"/>
<path d="M15.8022 6L9.51498 16.4321L15.8022 20.1485V13.5744V6Z" fill="white"/>
<path d="M15.8033 21.9552L15.726 22.0495V26.8744L15.8033 27.1004L22.0944 18.2407L15.8033 21.9552Z" fill="white"/>
<path d="M15.8019 27.1005V21.9552L9.51465 18.2407L15.8019 27.1005Z" fill="white"/>
</svg>
