<svg width="32" height="32" viewBox="0 0 32 32" fill="none" xmlns="http://www.w3.org/2000/svg">
<path d="M32 15.9999C32 24.8365 24.8367 32 16.0001 32C7.16344 32 0 24.8365 0 15.9999C0 7.1634 7.16344 0 16.0001 0C24.8366 0 32 7.1634 32 15.9999Z" fill="#9571E7"/>
<path d="M21.636 12.485C21.2674 12.2771 20.7673 12.2771 20.3461 12.485L17.319 14.2267L15.2658 15.3445L12.3176 17.1122C11.949 17.3202 11.4489 17.3202 11.0277 17.1122L8.71129 15.7344C8.34276 15.5265 8.05321 15.0846 8.05321 14.6166V11.9391C8.05321 11.5232 8.26379 11.0813 8.71129 10.8213L11.0014 9.49556C11.3699 9.28759 11.8701 9.28759 12.2912 9.49556L14.6077 10.8733C14.9762 11.0813 15.2658 11.5232 15.2658 11.9911V13.7588L17.319 12.589V10.7693C17.319 10.3534 17.1084 9.91148 16.6609 9.65153L12.3702 7.15597C12.0017 6.94801 11.5015 6.94801 11.0804 7.15597L6.65808 9.70352C6.21059 9.91148 6 10.3534 6 10.7693V15.7864C6 16.2024 6.21059 16.6443 6.65808 16.9042L11.0014 19.3998C11.3699 19.6078 11.8701 19.6078 12.2912 19.3998L15.2658 17.6841L17.319 16.5143L20.2935 14.7986C20.662 14.5907 21.1622 14.5907 21.5833 14.7986L23.8998 16.1244C24.2683 16.3323 24.5578 16.7743 24.5578 17.2422V19.8937C24.5578 20.3096 24.3473 20.7516 23.8998 21.0115L21.636 22.3373C21.2674 22.5452 20.7673 22.5452 20.3461 22.3373L18.0297 21.0115C17.6612 20.8035 17.3716 20.3616 17.3716 19.8937V18.178L15.3184 19.3478V21.1155C15.3184 21.5314 15.529 21.9733 15.9765 22.2333L20.3461 24.7288C20.7147 24.9368 21.2148 24.9368 21.636 24.7288L26.0056 22.2593C26.3741 22.0513 26.6637 21.6094 26.6637 21.1415V16.0984C26.6637 15.6825 26.4531 15.2405 26.0056 14.9806L21.636 12.485Z" fill="white"/>
</svg>
