<svg width="16" height="15" viewBox="0 0 16 15" fill="none" xmlns="http://www.w3.org/2000/svg">
<path d="M8 14L1.76119 6.75852C1.38986 6.32752 1.2042 6.11201 1.15495 5.84628C1.1057 5.58055 1.20181 5.31283 1.39402 4.77738L1.79924 3.64854C2.25875 2.36849 2.4885 1.72847 3.00624 1.36423C3.52398 1 4.204 1 5.56402 1H10.436C11.796 1 12.476 1 12.9938 1.36423C13.5115 1.72847 13.7413 2.36849 14.2008 3.64854L14.606 4.77738C14.7982 5.31283 14.8943 5.58055 14.8451 5.84628C14.7958 6.11201 14.6101 6.32752 14.2388 6.75852L8 14ZM8 14L11.0625 5.0625M8 14L4.9375 5.0625M14.5625 5.875L11.0625 5.0625M11.0625 5.0625L9.75 1.8125M11.0625 5.0625H4.9375M6.25 1.8125L4.9375 5.0625M4.9375 5.0625L1.4375 5.875" stroke="#0197E2" stroke-linecap="round"/>
</svg>
