<svg width="32" height="32" viewBox="0 0 32 32" fill="none" xmlns="http://www.w3.org/2000/svg">
<path d="M32 15.9999C32 24.8365 24.8367 32 16.0001 32C7.16344 32 0 24.8365 0 15.9999C0 7.1634 7.16344 0 16.0001 0C24.8366 0 32 7.1634 32 15.9999Z" fill="#030D22"/>
<path fill-rule="evenodd" clip-rule="evenodd" d="M11.8579 14.2974L16.0013 10.1557L20.1465 14.3007L22.556 11.8896L16.0013 5.33337L9.44662 11.8879L11.8579 14.2974Z" fill="#FAB416"/>
<path fill-rule="evenodd" clip-rule="evenodd" d="M5.33334 16.0005L7.74372 13.5902L10.1541 16.0005L7.74372 18.4108L5.33334 16.0005Z" fill="#FAB416"/>
<path fill-rule="evenodd" clip-rule="evenodd" d="M11.8591 17.7027L16.0025 21.846L20.1477 17.701L22.5589 20.1088L22.5572 20.1105L16.0025 26.6667L9.44783 20.1139L9.44446 20.1105L11.8591 17.7027Z" fill="#FAB416"/>
<path fill-rule="evenodd" clip-rule="evenodd" d="M21.8455 16.0009L24.2559 13.5906L26.6662 16.0009L24.2559 18.4112L21.8455 16.0009Z" fill="#FAB416"/>
<path fill-rule="evenodd" clip-rule="evenodd" d="M18.4471 15.9991L16.0022 13.5526L14.1941 15.3605L13.9852 15.5678L13.5572 15.9957L13.5538 15.9991L13.5572 16.0042L16.0022 18.4474L18.4471 16.0008L18.4488 15.9991H18.4471Z" fill="#FAB416"/>
</svg>
