<svg width="30" height="30" viewBox="0 0 30 30" fill="none" xmlns="http://www.w3.org/2000/svg">
<path fill-rule="evenodd" clip-rule="evenodd" d="M15 2.30769C7.99023 2.30769 2.30769 7.99023 2.30769 15C2.30769 22.0098 7.99023 27.6923 15 27.6923C22.0098 27.6923 27.6923 22.0098 27.6923 15C27.6923 7.99023 22.0098 2.30769 15 2.30769ZM0 15C0 6.71573 6.71573 0 15 0C23.2843 0 30 6.71573 30 15C30 23.2843 23.2843 30 15 30C6.71573 30 0 23.2843 0 15Z" fill="#7C8BA8"/>
<path fill-rule="evenodd" clip-rule="evenodd" d="M13.0435 14.2029C13.0435 13.5625 13.4814 13.0435 14.0217 13.0435H15C15.5403 13.0435 15.9782 13.5625 15.9782 14.2029V21.1594C16.5185 21.1594 16.9565 21.6785 16.9565 22.3188C16.9565 22.9591 16.5185 23.4782 15.9782 23.4782H15C14.4597 23.4782 14.0217 22.9591 14.0217 22.3188V15.3623C13.4814 15.3623 13.0435 14.8432 13.0435 14.2029Z" fill="#7C8BA8"/>
<path d="M14.3478 9.13049C15.0682 9.13049 15.6522 8.54651 15.6522 7.82614C15.6522 7.10577 15.0682 6.52179 14.3478 6.52179C13.6274 6.52179 13.0435 7.10577 13.0435 7.82614C13.0435 8.54651 13.6274 9.13049 14.3478 9.13049Z" fill="#7C8BA8"/>
</svg>
