<svg width="18" height="20" viewBox="0 0 18 20" fill="none" xmlns="http://www.w3.org/2000/svg">
<path d="M17.1743 0H0.825688C0.369661 0 0 0.349766 0 0.78125V16.25C0 16.6815 0.369661 17.0313 0.825688 17.0313H5.52039L8.41616 19.7712C8.73859 20.0763 9.26137 20.0763 9.58384 19.7712L12.4796 17.0313H17.1743C17.6303 17.0313 18 16.6815 18 16.25V0.78125C18 0.349766 17.6303 0 17.1743 0ZM16.3486 15.4688H12.1376C11.9186 15.4688 11.7086 15.5511 11.5538 15.6976L9 18.1139L6.44623 15.6976C6.29141 15.5511 6.08136 15.4688 5.86239 15.4688H1.65138V1.5625H16.3486V15.4688ZM9.81347 7.78543V11.5447C9.81347 11.7816 9.44847 12.0184 9.00004 12.0184C8.53076 12.0184 8.19706 11.7816 8.19706 11.5447V7.78543C8.19706 7.50914 8.53076 7.32168 9.00004 7.32168C9.44847 7.32168 9.81347 7.50914 9.81347 7.78543ZM8.14496 5.70348C8.14496 5.32852 8.52036 5.00293 9.00004 5.00293C9.46932 5.00293 9.84472 5.32852 9.84472 5.70348C9.84472 6.07844 9.46932 6.41391 9.00004 6.41391C8.52036 6.41391 8.14496 6.07844 8.14496 5.70348Z" fill="#0197E2"/>
</svg>
