<svg width="18" height="19" viewBox="0 0 18 19" fill="none" xmlns="http://www.w3.org/2000/svg">
<path d="M15 2.75V1.75H16V2.75H15ZM8.20711 10.9571C7.81658 11.3476 7.18342 11.3476 6.79289 10.9571C6.40237 10.5666 6.40237 9.93342 6.79289 9.54289L8.20711 10.9571ZM14 8.75V2.75H16V8.75H14ZM15 3.75H9V1.75H15V3.75ZM15.7071 3.45711L8.20711 10.9571L6.79289 9.54289L14.2929 2.04289L15.7071 3.45711Z" fill="#5454D4"/>
<path d="M15 2.75V1.75H16V2.75H15ZM8.20711 10.9571C7.81658 11.3476 7.18342 11.3476 6.79289 10.9571C6.40237 10.5666 6.40237 9.93342 6.79289 9.54289L8.20711 10.9571ZM14 8.75V2.75H16V8.75H14ZM15 3.75H9V1.75H15V3.75ZM15.7071 3.45711L8.20711 10.9571L6.79289 9.54289L14.2929 2.04289L15.7071 3.45711Z" fill="url(#paint0_linear)"/>
<path d="M14.25 11.75V11.75C14.25 12.447 14.25 12.7955 14.1924 13.0853C13.9556 14.2753 13.0253 15.2056 11.8353 15.4424C11.5455 15.5 11.197 15.5 10.5 15.5H8.25C5.42157 15.5 4.00736 15.5 3.12868 14.6213C3.12868 14.6213 3.12868 14.6213 3.12868 14.6213C2.25 13.7426 2.25 12.3284 2.25 9.5V7.25C2.25 6.55302 2.25 6.20453 2.30764 5.91473C2.54436 4.72466 3.47466 3.79436 4.66473 3.55764C4.95453 3.5 5.30302 3.5 6 3.5V3.5" stroke="#5454D4" stroke-width="2" stroke-linecap="round"/>
<path d="M14.25 11.75V11.75C14.25 12.447 14.25 12.7955 14.1924 13.0853C13.9556 14.2753 13.0253 15.2056 11.8353 15.4424C11.5455 15.5 11.197 15.5 10.5 15.5H8.25C5.42157 15.5 4.00736 15.5 3.12868 14.6213C3.12868 14.6213 3.12868 14.6213 3.12868 14.6213C2.25 13.7426 2.25 12.3284 2.25 9.5V7.25C2.25 6.55302 2.25 6.20453 2.30764 5.91473C2.54436 4.72466 3.47466 3.79436 4.66473 3.55764C4.95453 3.5 5.30302 3.5 6 3.5V3.5" stroke="url(#paint1_linear)" stroke-width="2" stroke-linecap="round"/>
<defs>
<linearGradient id="paint0_linear" x1="9.13985" y1="9.27117" x2="14.1392" y2="2.70658" gradientUnits="userSpaceOnUse">
<stop stop-color="#007FEF"/>
<stop offset="1" stop-color="#00E3B6"/>
</linearGradient>
<linearGradient id="paint1_linear" x1="4.87376" y1="13.9339" x2="12.8727" y2="3.43053" gradientUnits="userSpaceOnUse">
<stop stop-color="#007FEF"/>
<stop offset="1" stop-color="#00E3B6"/>
</linearGradient>
</defs>
</svg>
