<svg width="23" height="24" viewBox="0 0 23 24" fill="none" xmlns="http://www.w3.org/2000/svg">
<path fill-rule="evenodd" clip-rule="evenodd" d="M11.5 2.26923C6.3595 2.26923 2.19231 6.62584 2.19231 12C2.19231 17.3742 6.3595 21.7308 11.5 21.7308C16.6405 21.7308 20.8077 17.3742 20.8077 12C20.8077 6.62584 16.6405 2.26923 11.5 2.26923ZM0.5 12C0.5 5.64873 5.42487 0.5 11.5 0.5C17.5751 0.5 22.5 5.64873 22.5 12C22.5 18.3513 17.5751 23.5 11.5 23.5C5.42487 23.5 0.5 18.3513 0.5 12Z" fill="white"/>
<path fill-rule="evenodd" clip-rule="evenodd" d="M6.5 12.5C6.5 11.9477 6.8731 11.5 7.33333 11.5H15.6667C16.1269 11.5 16.5 11.9477 16.5 12.5C16.5 13.0523 16.1269 13.5 15.6667 13.5H7.33333C6.8731 13.5 6.5 13.0523 6.5 12.5Z" fill="white"/>
<path fill-rule="evenodd" clip-rule="evenodd" d="M11.5 7.5C12.0523 7.5 12.5 7.8731 12.5 8.33333V16.6667C12.5 17.1269 12.0523 17.5 11.5 17.5C10.9477 17.5 10.5 17.1269 10.5 16.6667V8.33333C10.5 7.8731 10.9477 7.5 11.5 7.5Z" fill="white"/>
</svg>
