<svg width="16" height="16" viewBox="0 0 16 16" fill="none" xmlns="http://www.w3.org/2000/svg">
<path opacity="0.5" fill-rule="evenodd" clip-rule="evenodd" d="M11.7673 6.54374C11.7673 9.05865 9.73606 11.0875 7.24256 11.0875C4.74905 11.0875 2.71777 9.05865 2.71777 6.54374C2.71777 4.02883 4.74905 2 7.24256 2C9.73606 2 11.7673 4.02883 11.7673 6.54374ZM10.7405 12.0686C9.72958 12.7138 8.52959 13.0875 7.24256 13.0875C3.63902 13.0875 0.717773 10.1577 0.717773 6.54374C0.717773 2.92973 3.63902 0 7.24256 0C10.8461 0 13.7673 2.92973 13.7673 6.54374C13.7673 8.14316 13.1952 9.60855 12.2449 10.7453L15.6886 14.2129C16.0777 14.6047 16.0777 15.2401 15.6886 15.632C15.2994 16.0238 14.6684 16.0238 14.2793 15.632L10.7405 12.0686Z" fill="white"/>
</svg>
