<svg width="16" height="16" viewBox="0 0 16 16" fill="none" xmlns="http://www.w3.org/2000/svg">
<path fill-rule="evenodd" clip-rule="evenodd" d="M11.0496 6.54374C11.0496 9.05865 9.01829 11.0875 6.52478 11.0875C4.03128 11.0875 2 9.05865 2 6.54374C2 4.02883 4.03128 2 6.52478 2C9.01829 2 11.0496 4.02883 11.0496 6.54374ZM10.0228 12.0686C9.01181 12.7138 7.81181 13.0875 6.52478 13.0875C2.92125 13.0875 0 10.1577 0 6.54374C0 2.92973 2.92125 0 6.52478 0C10.1283 0 13.0496 2.92973 13.0496 6.54374C13.0496 8.14316 12.4774 9.60855 11.5272 10.7453L14.9708 14.2129C15.3599 14.6047 15.3599 15.2401 14.9708 15.632C14.5816 16.0238 13.9506 16.0238 13.5615 15.632L10.0228 12.0686Z" fill="white"/>
</svg>
