<svg width="24" height="24" viewBox="0 0 24 24" fill="none" xmlns="http://www.w3.org/2000/svg">
<path d="M5.12869 3.93909H0.705876C0.315983 3.93909 0 3.6229 0 3.23322C0 2.84354 0.315983 2.52734 0.705876 2.52734H5.12869C5.51859 2.52734 5.83457 2.84354 5.83457 3.23322C5.83457 3.6229 5.51859 3.93909 5.12869 3.93909Z" fill="#198EF5"/>
<path d="M7.6571 6.4666C5.87422 6.4666 4.42383 5.0162 4.42383 3.23348C4.42383 1.45039 5.87422 0 7.6571 0C9.43998 0 10.8904 1.45039 10.8904 3.23348C10.8904 5.01626 9.43998 6.4666 7.6571 6.4666ZM7.6571 1.41181C6.65269 1.41181 5.83558 2.22907 5.83558 3.23348C5.83558 4.23789 6.65269 5.05479 7.6571 5.05479C8.6615 5.05479 9.47861 4.23789 9.47861 3.23348C9.47861 2.22907 8.6615 1.41181 7.6571 1.41181Z" fill="#198EF5"/>
<path d="M23.293 3.93909H12.743C12.3531 3.93909 12.0371 3.6229 12.0371 3.23322C12.0371 2.84354 12.3531 2.52734 12.743 2.52734H23.293C23.6828 2.52734 23.9988 2.84354 23.9988 3.23322C23.9988 3.6229 23.6829 3.93909 23.293 3.93909Z" fill="#198EF5"/>
<path d="M17.1337 14.9955C15.3507 14.9955 13.9004 13.5451 13.9004 11.7624C13.9004 9.97968 15.3508 8.5293 17.1337 8.5293C18.9165 8.5293 20.3669 9.97968 20.3669 11.7624C20.3669 13.5451 18.9166 14.9955 17.1337 14.9955ZM17.1337 9.9411C16.1293 9.9411 15.3121 10.758 15.3121 11.7624C15.3121 12.7668 16.1293 13.5837 17.1337 13.5837C18.1381 13.5837 18.9552 12.7668 18.9552 11.7624C18.9552 10.758 18.1381 9.9411 17.1337 9.9411Z" fill="#198EF5"/>
<path d="M12.0458 12.4684H0.705876C0.315983 12.4684 0 12.1522 0 11.7625C0 11.3728 0.315983 11.0566 0.705876 11.0566H12.0458C12.4357 11.0566 12.7517 11.3728 12.7517 11.7625C12.7517 12.1522 12.4357 12.4684 12.0458 12.4684Z" fill="#198EF5"/>
<path d="M23.2941 12.4684H19.661C19.2711 12.4684 18.9551 12.1522 18.9551 11.7625C18.9551 11.3728 19.2711 11.0566 19.661 11.0566H23.2941C23.6839 11.0566 23.9999 11.3728 23.9999 11.7625C23.9999 12.1522 23.6839 12.4684 23.2941 12.4684Z" fill="#198EF5"/>
<path d="M6.86608 23.5271C5.0832 23.5271 3.63281 22.0767 3.63281 20.2937C3.63281 18.5109 5.0832 17.0605 6.86608 17.0605C8.64895 17.0605 10.0993 18.5109 10.0993 20.2937C10.0993 22.0767 8.64895 23.5271 6.86608 23.5271ZM6.86608 18.4724C5.86167 18.4724 5.04456 19.2892 5.04456 20.2937C5.04456 21.2981 5.86167 22.1153 6.86608 22.1153C7.87048 22.1153 8.68759 21.2981 8.68759 20.2937C8.68759 19.2892 7.87048 18.4724 6.86608 18.4724Z" fill="#198EF5"/>
<path d="M23.2938 20.9996H11.9539C11.564 20.9996 11.248 20.6835 11.248 20.2938C11.248 19.9041 11.564 19.5879 11.9539 19.5879H23.2938C23.6837 19.5879 23.9997 19.9041 23.9997 20.2938C23.9997 20.6835 23.6837 20.9996 23.2938 20.9996Z" fill="#198EF5"/>
<path d="M4.33897 20.9997H0.705876C0.315983 20.9997 0 20.6835 0 20.2938C0 19.9041 0.315983 19.5879 0.705876 19.5879H4.33897C4.72887 19.5879 5.04485 19.9041 5.04485 20.2938C5.04485 20.6835 4.72887 20.9997 4.33897 20.9997Z" fill="#198EF5"/>
</svg>
