<svg width="42" height="42" viewBox="0 0 42 42" fill="none" xmlns="http://www.w3.org/2000/svg">
<path d="M21 42C32.598 42 42 32.598 42 21C42 9.40202 32.598 0 21 0C9.40202 0 0 9.40202 0 21C0 32.598 9.40202 42 21 42Z" fill="url(#paint0_linear_1495_7808)"/>
<path d="M13.2634 28.7366C12.975 28.4482 12.5082 28.4482 12.2198 28.7366L9.08893 31.8675C8.80051 32.1559 8.80051 32.6228 9.08893 32.9112C9.37736 33.1996 9.84411 33.1996 10.1325 32.9112L13.2634 29.7803C13.5518 29.4919 13.5518 29.0251 13.2634 28.7366ZM14.307 30.8239L13.2634 31.8675C12.975 32.1559 12.975 32.6228 13.2634 32.9112C13.5518 33.1996 14.0186 33.1996 14.307 32.9112L15.3506 31.8675C15.639 31.5791 15.639 31.1123 15.3506 30.8239C15.0622 30.5355 14.5954 30.5355 14.307 30.8239ZM10.1325 26.6494L9.08893 27.693C8.80051 27.9814 8.80051 28.4483 9.08893 28.7367C9.37736 29.0251 9.84411 29.0251 10.1325 28.7367L11.1761 27.693C11.4646 27.4046 11.4646 26.9378 11.1761 26.6494C10.8877 26.361 10.421 26.361 10.1325 26.6494ZM33.3012 9.32457C33.2543 9.00047 32.9996 8.74568 32.6755 8.69884C32.5009 8.67382 30.1244 8.36251 27.031 9.10817L32.8919 14.9691C33.6375 11.8757 33.3262 9.49913 33.3012 9.32457ZM19.0033 13.6041C16.9662 15.6411 14.1296 19.2419 13.1049 21.6662C12.9881 21.9429 13.0508 22.2624 13.2633 22.4749L14.3069 23.5185L17.4378 20.3876C18.5885 19.2369 20.4612 19.2364 21.6123 20.3876C22.7635 21.5387 22.763 23.4114 21.6123 24.5621L18.4814 27.6929L19.525 28.7366C19.7375 28.9491 20.057 29.0118 20.3337 28.8951C22.7346 27.8803 26.3175 25.0751 28.3958 22.9967C30.4768 20.9157 31.6952 18.6552 32.4135 16.5781L25.4217 9.58633C23.3448 10.3047 21.0844 11.5231 19.0033 13.6041ZM27.8742 14.1259C29.0253 15.277 29.0248 17.1497 27.8742 18.3004C26.7235 19.451 24.8508 19.4515 23.6997 18.3004C22.5485 17.1492 22.549 15.2765 23.6997 14.1259C24.8503 12.9752 26.723 12.9747 27.8742 14.1259ZM26.8306 17.2568C27.4064 16.6809 27.4059 15.7448 26.8306 15.1695C26.2553 14.5942 25.3191 14.5936 24.7433 15.1695C24.1674 15.7453 24.168 16.6814 24.7433 17.2568C25.3187 17.832 26.2547 17.8326 26.8306 17.2568ZM20.1618 30.4141C20.1353 30.9429 19.9282 31.4645 19.5251 31.8675C19.2367 32.1559 19.2367 32.6228 19.5251 32.9112C19.5888 32.9749 21.1201 34.4471 23.6996 31.8675C25.5054 30.0618 26.0362 28.259 26.1398 26.9256C24.1539 28.4786 22.3065 29.6636 20.9086 30.2547C20.6658 30.357 20.414 30.4007 20.1618 30.4141ZM10.1325 22.4749C10.5356 22.0718 11.057 21.8649 11.5858 21.8382C11.5991 21.5865 11.6428 21.335 11.7449 21.0929C12.3369 19.6925 13.5221 17.8444 15.0734 15.8603C13.7399 15.9641 11.9378 16.4952 10.1325 18.3004C7.55306 20.8798 9.0252 22.4112 9.08893 22.4749C9.37727 22.7634 9.84411 22.7634 10.1325 22.4749ZM20.5688 21.4312C19.9935 20.8559 19.0574 20.8554 18.4816 21.4312L14.3071 25.6057C13.7312 26.1816 13.7318 27.1177 14.3071 27.6929C14.8824 28.2683 15.8185 28.2688 16.3944 27.6929L20.5689 23.5185C21.1446 22.9427 21.1441 22.0066 20.5688 21.4312Z" fill="url(#paint1_linear_1495_7808)"/>
<defs>
<linearGradient id="paint0_linear_1495_7808" x1="21" y1="42" x2="21" y2="0" gradientUnits="userSpaceOnUse">
<stop stop-color="#ADDCFF"/>
<stop offset="0.5028" stop-color="#EAF6FF"/>
<stop offset="1" stop-color="#EAF6FF"/>
</linearGradient>
<linearGradient id="paint1_linear_1495_7808" x1="9.09026" y1="32.9033" x2="33.0901" y2="8.90352" gradientUnits="userSpaceOnUse">
<stop stop-color="#00C0FF"/>
<stop offset="1" stop-color="#5558FF"/>
</linearGradient>
</defs>
</svg>
