<svg width="15" height="10" viewBox="0 0 15 10" fill="none" xmlns="http://www.w3.org/2000/svg">
<path d="M6.30669 9.24939L0.311688 2.39689C-0.395811 1.59064 0.179188 0.324387 1.25294 0.324387H13.2429C13.4832 0.324181 13.7185 0.393246 13.9206 0.523313C14.1226 0.653379 14.2829 0.838933 14.3822 1.05775C14.4816 1.27657 14.5157 1.51938 14.4806 1.75711C14.4455 1.99483 14.3426 2.21739 14.1842 2.39814L8.18919 9.24814C8.07186 9.3824 7.92717 9.49001 7.76483 9.56374C7.60248 9.63747 7.42624 9.67561 7.24794 9.67561C7.06964 9.67561 6.8934 9.63747 6.73105 9.56374C6.56871 9.49001 6.42402 9.3824 6.30669 9.24814V9.24939Z" fill="white"/>
</svg>
