<svg width="76" height="76" viewBox="0 0 76 76" fill="none" xmlns="http://www.w3.org/2000/svg">
<path fill-rule="evenodd" clip-rule="evenodd" d="M76 38C76 58.9868 58.9868 76 38 76C17.0132 76 0 58.9868 0 38C0 17.0132 17.0132 0 38 0C58.9868 0 76 17.0132 76 38ZM60.1667 38C60.1667 50.2423 50.2423 60.1667 38 60.1667C25.7577 60.1667 15.8333 50.2423 15.8333 38C15.8333 25.7577 25.7577 15.8333 38 15.8333C50.2423 15.8333 60.1667 25.7577 60.1667 38ZM34.0417 30.875C32.2927 30.875 30.875 32.2927 30.875 34.0417V41.9583C30.875 43.7073 32.2927 45.125 34.0417 45.125H41.9583C43.7073 45.125 45.125 43.7073 45.125 41.9583V34.0417C45.125 32.2927 43.7073 30.875 41.9583 30.875H34.0417Z" fill="#2D65F8"/>
</svg>
