<?xml version="1.0" encoding="utf-8"?>
<!-- Generator: Adobe Illustrator 24.3.0, SVG Export Plug-In . SVG Version: 6.00 Build 0)  -->
<svg version="1.1" id="Layer_1" xmlns="http://www.w3.org/2000/svg" xmlns:xlink="http://www.w3.org/1999/xlink" x="0px" y="0px"
	 viewBox="0 0 1000 1000" style="enable-background:new 0 0 1000 1000;" xml:space="preserve">
<style type="text/css">
	.st0{fill:#110F4C;}
	.st1{fill:url(#SVGID_1_);}
	.st2{fill:url(#SVGID_2_);}
	.st3{fill:#F2F2F2;}
	.st4{fill:url(#SVGID_3_);}
	.st5{fill:url(#SVGID_4_);}
	.st6{fill:#FFFFFF;}
	.st7{fill:url(#SVGID_5_);}
	.st8{fill:url(#SVGID_6_);}
</style>
<rect class="st0" width="1000" height="1000"/>
<g>
	<g>
		<g>
			<g>
				<g>
					<path class="st3" d="M429.94,539.51c-4.07,0-8.18-0.13-12.32-0.39c-4.15-0.26-7.77-0.79-10.88-1.61v-74.72
						c1.63-0.29,3.37-0.57,5.22-0.83c1.85-0.26,3.74-0.46,5.66-0.61c1.92-0.15,3.83-0.26,5.72-0.33c1.89-0.07,3.68-0.11,5.38-0.11
						c4.66,0,8.99,0.35,12.99,1.05c4,0.7,7.46,1.87,10.38,3.5c2.92,1.63,5.2,3.77,6.83,6.44c1.63,2.66,2.44,5.96,2.44,9.88
						c0,3.63-0.87,6.74-2.61,9.33c-1.74,2.59-4.16,4.66-7.27,6.22c4.66,1.55,8.1,3.85,10.33,6.88c2.22,3.04,3.33,6.88,3.33,11.55
						c0,7.92-2.89,13.86-8.66,17.82C450.71,537.53,441.86,539.51,429.94,539.51z M420.51,492.99h9.88c5.33,0,9.51-0.76,12.55-2.28
						c3.03-1.52,4.55-4.24,4.55-8.16c0-3.7-1.57-6.33-4.72-7.88c-3.15-1.55-7.24-2.33-12.27-2.33c-2.15,0-4.05,0.04-5.72,0.11
						c-1.67,0.07-3.09,0.19-4.27,0.33V492.99z M420.51,503.98v23.43c1.55,0.15,3.22,0.26,5,0.33c1.78,0.07,3.4,0.11,4.89,0.11
						c2.89,0,5.57-0.18,8.05-0.55c2.48-0.37,4.63-1.02,6.44-1.94c1.81-0.92,3.26-2.17,4.33-3.72c1.07-1.55,1.61-3.55,1.61-6
						c0-4.37-1.59-7.4-4.77-9.1c-3.18-1.7-7.59-2.55-13.21-2.55H420.51z"/>
					<path class="st3" d="M494.01,463.56c0,2.52-0.82,4.52-2.44,6c-1.63,1.48-3.55,2.22-5.77,2.22c-2.3,0-4.26-0.74-5.88-2.22
						c-1.63-1.48-2.44-3.48-2.44-6c0-2.59,0.81-4.63,2.44-6.11c1.63-1.48,3.59-2.22,5.88-2.22c2.22,0,4.14,0.74,5.77,2.22
						C493.19,458.94,494.01,460.97,494.01,463.56z M492.56,538.62h-13.43v-58.07h13.43V538.62z"/>
					<path class="st3" d="M508.99,465.23l13.43-2.22v17.54h20.65v11.21h-20.65v23.65c0,4.66,0.74,7.99,2.22,9.99c1.48,2,4,3,7.55,3
						c2.44,0,4.61-0.26,6.49-0.78c1.89-0.52,3.39-1,4.5-1.44l2.22,10.66c-1.55,0.67-3.59,1.35-6.11,2.05
						c-2.52,0.7-5.48,1.05-8.88,1.05c-4.15,0-7.61-0.55-10.38-1.67c-2.78-1.11-4.98-2.72-6.61-4.83c-1.63-2.11-2.78-4.66-3.44-7.66
						c-0.67-3-1-6.42-1-10.27V465.23z"/>
					<path class="st3" d="M603.04,532.73c0,9.25-2.35,16.02-7.05,20.32c-4.7,4.29-11.9,6.44-21.59,6.44c-3.55,0-7.01-0.3-10.38-0.89
						c-3.37-0.59-6.42-1.37-9.16-2.33l2.44-11.44c2.29,0.96,4.9,1.74,7.83,2.33c2.92,0.59,6.09,0.89,9.49,0.89
						c5.4,0,9.25-1.11,11.55-3.33c2.29-2.22,3.44-5.52,3.44-9.88v-2.22c-1.33,0.67-3.09,1.33-5.27,2c-2.18,0.67-4.68,1-7.49,1
						c-3.7,0-7.09-0.59-10.16-1.78c-3.07-1.18-5.7-2.92-7.88-5.22c-2.18-2.29-3.89-5.16-5.11-8.6c-1.22-3.44-1.83-7.42-1.83-11.94
						c0-4.22,0.65-8.11,1.94-11.66c1.29-3.55,3.18-6.59,5.66-9.1c2.48-2.52,5.5-4.48,9.05-5.88c3.55-1.41,7.59-2.11,12.1-2.11
						c4.37,0,8.51,0.33,12.43,1c3.92,0.67,7.25,1.37,9.99,2.11V532.73z M565.62,508.09c0,5.7,1.24,9.86,3.72,12.49
						c2.48,2.63,5.68,3.94,9.6,3.94c2.15,0,4.16-0.29,6.05-0.89c1.89-0.59,3.42-1.29,4.61-2.11v-30.09
						c-0.96-0.22-2.15-0.42-3.55-0.61c-1.41-0.18-3.18-0.28-5.33-0.28c-4.89,0-8.62,1.61-11.21,4.83
						C566.91,498.59,565.62,502.83,565.62,508.09z"/>
					<path class="st3" d="M616.91,509.86c0-5.11,0.76-9.58,2.28-13.43c1.52-3.85,3.53-7.05,6.05-9.6c2.52-2.55,5.4-4.48,8.66-5.77
						c3.26-1.29,6.59-1.94,9.99-1.94c7.99,0,14.23,2.48,18.71,7.44c4.48,4.96,6.72,12.36,6.72,22.21c0,0.74-0.02,1.57-0.05,2.5
						c-0.04,0.93-0.09,1.76-0.17,2.5h-38.3c0.37,4.66,2.02,8.27,4.94,10.83c2.92,2.55,7.16,3.83,12.71,3.83
						c3.26,0,6.23-0.29,8.94-0.89c2.7-0.59,4.83-1.22,6.38-1.89l1.78,10.99c-0.74,0.37-1.76,0.76-3.05,1.17
						c-1.3,0.41-2.78,0.78-4.44,1.11c-1.67,0.33-3.46,0.61-5.39,0.83c-1.92,0.22-3.89,0.33-5.88,0.33c-5.11,0-9.55-0.76-13.32-2.28
						c-3.78-1.52-6.88-3.63-9.33-6.33c-2.44-2.7-4.26-5.88-5.44-9.55C617.51,518.24,616.91,514.23,616.91,509.86z M655.88,503.87
						c0-1.85-0.26-3.61-0.78-5.27c-0.52-1.67-1.28-3.11-2.28-4.33c-1-1.22-2.22-2.18-3.66-2.89c-1.44-0.7-3.16-1.05-5.16-1.05
						c-2.07,0-3.89,0.39-5.44,1.17c-1.55,0.78-2.87,1.8-3.94,3.05c-1.07,1.26-1.91,2.7-2.5,4.33c-0.59,1.63-1,3.29-1.22,5H655.88z"
						/>
					<path class="st3" d="M702.85,479.11c4.44,0,8.18,0.56,11.21,1.67c3.03,1.11,5.46,2.66,7.27,4.66c1.81,2,3.11,4.42,3.89,7.27
						c0.78,2.85,1.17,5.98,1.17,9.38v35.2c-2.07,0.44-5.2,0.98-9.38,1.61c-4.18,0.63-8.9,0.94-14.16,0.94c-3.48,0-6.66-0.33-9.55-1
						c-2.89-0.67-5.35-1.74-7.38-3.22c-2.04-1.48-3.63-3.4-4.77-5.77c-1.15-2.37-1.72-5.29-1.72-8.77c0-3.33,0.65-6.14,1.94-8.44
						c1.29-2.29,3.05-4.16,5.27-5.61c2.22-1.44,4.79-2.48,7.72-3.11c2.92-0.63,5.98-0.94,9.16-0.94c1.48,0,3.03,0.09,4.66,0.28
						c1.63,0.19,3.37,0.5,5.22,0.94v-2.22c0-1.55-0.19-3.03-0.55-4.44c-0.37-1.41-1.02-2.65-1.94-3.72c-0.93-1.07-2.15-1.9-3.66-2.5
						c-1.52-0.59-3.42-0.89-5.72-0.89c-3.11,0-5.96,0.22-8.55,0.67c-2.59,0.44-4.7,0.96-6.33,1.55l-1.66-10.88
						c1.7-0.59,4.18-1.18,7.44-1.78C695.67,479.4,699.15,479.11,702.85,479.11z M703.96,529.18c4.14,0,7.29-0.22,9.44-0.67v-14.88
						c-0.74-0.22-1.81-0.44-3.22-0.67c-1.41-0.22-2.96-0.33-4.66-0.33c-1.48,0-2.98,0.11-4.5,0.33c-1.52,0.22-2.89,0.63-4.11,1.22
						c-1.22,0.59-2.2,1.43-2.94,2.5c-0.74,1.07-1.11,2.43-1.11,4.05c0,3.18,1,5.38,3,6.61
						C697.85,528.57,700.55,529.18,703.96,529.18z"/>
					<path class="st3" d="M775.9,492.65c-1.11-0.37-2.65-0.76-4.61-1.17c-1.96-0.41-4.24-0.61-6.83-0.61
						c-1.48,0-3.05,0.15-4.72,0.44c-1.67,0.3-2.83,0.55-3.5,0.78v46.52h-13.43v-55.29c2.59-0.96,5.83-1.87,9.71-2.72
						c3.89-0.85,8.2-1.28,12.94-1.28c0.89,0,1.92,0.06,3.11,0.17c1.18,0.11,2.37,0.26,3.55,0.44c1.18,0.19,2.33,0.41,3.44,0.67
						c1.11,0.26,2,0.5,2.66,0.72L775.9,492.65z"/>
				</g>
			</g>
			<linearGradient id="SVGID_1_" gradientUnits="userSpaceOnUse" x1="526.3232" y1="515.0188" x2="473.8083" y2="447.9164">
				<stop  offset="0" style="stop-color:#007FEF"/>
				<stop  offset="1" style="stop-color:#00E3B6"/>
			</linearGradient>
			<circle class="st1" cx="485.85" cy="463.3" r="10.79"/>
		</g>
	</g>
	<linearGradient id="SVGID_2_" gradientUnits="userSpaceOnUse" x1="350.0716" y1="560.6689" x2="240.6163" y2="416.9265">
		<stop  offset="0" style="stop-color:#007FEF"/>
		<stop  offset="1" style="stop-color:#00E3B6"/>
	</linearGradient>
	<path class="st2" d="M385.98,510.26v-20.53l-22.2-3.7c-1.5-6.48-4.05-12.74-7.67-18.54l13.07-18.3l-14.51-14.51l-18.3,13.07
		c-5.8-3.62-12.06-6.17-18.54-7.67l-3.69-22.19l-20.53,0l-3.71,22.19c-0.08,0.02-0.17,0.04-0.25,0.06v22.78
		c0.08-0.03,0.15-0.06,0.23-0.09v13.52c0,0.13-0.05,0.25-0.15,0.34l-0.08,0.08l-12.44,11.91c-0.09,0.08-0.2,0.13-0.33,0.13h-11.12
		h-1.61V442.6l-11.1-7.92l-14.51,14.51l13.06,18.29c-3.61,5.81-6.15,12.08-7.66,18.55l-22.19,3.71l0,20.53l22.19,3.69
		c1.5,6.47,4.05,12.74,7.67,18.54l-13.07,18.3l14.51,14.51l18.3-13.07c5.81,3.62,12.06,6.16,18.54,7.67l3.68,22.07l0.02,0.12
		l20.53,0l0.02-0.12l3.69-22.08c6.47-1.5,12.74-4.05,18.53-7.66l18.3,13.07l14.51-14.51l-13.07-18.3c3.62-5.8,6.17-12.06,7.67-18.54
		L385.98,510.26z M280.46,532.07l9.02-8.89c0.42,0.11,0.85,0.17,1.29,0.17c2.73,0,4.95-2.22,4.95-4.95s-2.22-4.95-4.95-4.95
		c-2.73,0-4.95,2.22-4.95,4.95c0,0.49,0.07,0.97,0.21,1.43l-9.26,9.19c-7.76-7.25-12.62-17.56-12.62-29.02v-6.38h0.52h13.37
		c0.62,0,1.2-0.24,1.65-0.66l9.96-9.54l4.29-4.11c0.47-0.45,0.74-1.07,0.74-1.72v-16.22c2.95-0.7,6.03-1.08,9.19-1.08
		c2.24,0,4.44,0.2,6.58,0.55v20.83c0,0.12-0.05,0.24-0.14,0.33l-14.78,15.04c-0.34-0.07-0.68-0.11-1.03-0.11
		c-2.73,0-4.95,2.22-4.95,4.95c0,2.73,2.22,4.95,4.95,4.95s4.95-2.22,4.95-4.95c0-0.57-0.1-1.15-0.3-1.68l15.4-15.67
		c0.44-0.45,0.68-1.04,0.68-1.67v-20.9c8.72,2.6,16.18,8.13,21.26,15.43l-29.26,29.27c-0.45,0.45-0.7,1.05-0.7,1.69v31.26
		c-0.89,0.06-1.78,0.1-2.68,0.1C295.12,539.71,287.03,536.87,280.46,532.07z M330.95,529.03v-7.14c1.57-0.86,2.55-2.5,2.55-4.32
		c0-2.73-2.22-4.95-4.95-4.95c-2.73,0-4.95,2.22-4.95,4.95c0,1.83,0.98,3.46,2.55,4.32v10.98c-4.39,2.98-9.4,5.1-14.81,6.13v-29.45
		c0-0.13,0.05-0.24,0.14-0.33l27.57-27.61c2.88,5.5,4.52,11.76,4.52,18.4C343.58,511.46,338.72,521.78,330.95,529.03z"/>
</g>
</svg>
