<?xml version="1.0" encoding="utf-8"?>
<!-- Generator: Adobe Illustrator 24.3.0, SVG Export Plug-In . SVG Version: 6.00 Build 0)  -->
<svg version="1.1" id="Layer_1" xmlns="http://www.w3.org/2000/svg" xmlns:xlink="http://www.w3.org/1999/xlink" x="0px" y="0px"
	 viewBox="0 0 1000 1000" style="enable-background:new 0 0 1000 1000;" xml:space="preserve">
<style type="text/css">
	.st0{fill:#110F4C;}
	.st1{fill:url(#SVGID_1_);}
	.st2{fill:url(#SVGID_2_);}
	.st3{fill:#F2F2F2;}
	.st4{fill:url(#SVGID_3_);}
	.st5{fill:url(#SVGID_4_);}
	.st6{fill:#FFFFFF;}
	.st7{fill:url(#SVGID_5_);}
	.st8{fill:url(#SVGID_6_);}
</style>
<g>
	<rect x="0" class="st0" width="1000" height="1000"/>
</g>
<g>
	<linearGradient id="SVGID_1_" gradientUnits="userSpaceOnUse" x1="613.062" y1="648.4783" x2="345.1862" y2="296.6896">
		<stop  offset="0" style="stop-color:#007FEF"/>
		<stop  offset="1" style="stop-color:#00E3B6"/>
	</linearGradient>
	<path class="st1" d="M700.95,525.11v-50.24l-54.32-9.05c-3.68-15.85-9.92-31.18-18.77-45.37l31.99-44.79l-35.52-35.52l-44.79,31.99
		c-14.2-8.87-29.52-15.09-45.37-18.77l-9.04-54.31l-50.24,0l-9.07,54.31c-0.21,0.05-0.41,0.11-0.61,0.16v55.75
		c0.19-0.07,0.37-0.15,0.56-0.22v33.1c0,0.31-0.13,0.62-0.36,0.83l-0.2,0.19l-30.44,29.16c-0.22,0.21-0.5,0.32-0.8,0.32h-27.21
		h-3.93V359.53l-27.16-19.39l-35.52,35.52l31.97,44.77c-8.83,14.21-15.06,29.56-18.75,45.39l-54.31,9.07l0,50.23l54.31,9.04
		c3.66,15.84,9.91,31.17,18.77,45.38l-31.99,44.78l35.52,35.52l44.79-31.98c14.21,8.86,29.52,15.09,45.37,18.77l9,54.02l0.05,0.3
		l50.23,0l0.05-0.3l9.02-54.04c15.84-3.66,31.17-9.91,45.36-18.76l44.79,31.99l35.52-35.52l-31.99-44.79
		c8.85-14.19,15.09-29.52,18.77-45.37L700.95,525.11z M442.71,578.48l22.08-21.77c1.03,0.28,2.09,0.42,3.17,0.42
		c6.67,0,12.11-5.43,12.11-12.1s-5.43-12.1-12.11-12.1c-6.67,0-12.11,5.43-12.11,12.1c0,1.2,0.18,2.37,0.52,3.5l-22.67,22.49
		c-18.99-17.74-30.87-42.98-30.87-71.01v-15.62h1.27h32.71c1.51,0,2.94-0.58,4.04-1.62l24.37-23.34l10.49-10.05
		c1.14-1.09,1.8-2.63,1.8-4.21v-39.68c7.22-1.71,14.75-2.65,22.5-2.65c5.49,0,10.86,0.48,16.1,1.35v50.98c0,0.3-0.12,0.59-0.33,0.81
		l-36.17,36.81c-0.83-0.18-1.67-0.27-2.51-0.27c-6.67,0-12.11,5.43-12.11,12.11c0,6.67,5.43,12.1,12.11,12.1s12.1-5.43,12.1-12.1
		c0-1.41-0.25-2.8-0.72-4.12l37.69-38.36c1.08-1.1,1.67-2.55,1.67-4.09v-51.15c21.35,6.38,39.61,19.89,52.02,37.77l-71.6,71.65
		c-1.1,1.1-1.71,2.57-1.71,4.12v76.5c-2.17,0.14-4.35,0.24-6.55,0.24C478.57,597.18,458.77,590.23,442.71,578.48z M566.27,571.04
		v-17.47c3.84-2.11,6.24-6.11,6.24-10.58c0-6.67-5.43-12.1-12.1-12.1c-6.67,0-12.1,5.43-12.1,12.1c0,4.47,2.4,8.47,6.24,10.58v26.87
		c-10.74,7.29-23.02,12.48-36.24,15v-72.08c0-0.31,0.12-0.6,0.34-0.82l67.48-67.57c7.06,13.46,11.07,28.77,11.07,45.03
		C597.18,528.05,585.28,553.31,566.27,571.04z"/>
</g>
</svg>
