<svg width="37" height="34" viewBox="0 0 37 34" fill="none" xmlns="http://www.w3.org/2000/svg">
<path d="M33.877 0.911621L20.376 10.939L22.8726 5.02298L33.877 0.911621Z" fill="#E2761B" stroke="#E2761B" stroke-linecap="round" stroke-linejoin="round"/>
<path d="M2.71191 0.911621L16.1044 11.034L13.7298 5.02298L2.71191 0.911621Z" fill="#E4761B" stroke="#E4761B" stroke-linecap="round" stroke-linejoin="round"/>
<path d="M29.0205 24.1552L25.4248 29.6641L33.1183 31.7809L35.3301 24.2773L29.0205 24.1552Z" fill="#E4761B" stroke="#E4761B" stroke-linecap="round" stroke-linejoin="round"/>
<path d="M1.28613 24.2773L3.48428 31.7809L11.1778 29.6641L7.58207 24.1552L1.28613 24.2773Z" fill="#E4761B" stroke="#E4761B" stroke-linecap="round" stroke-linejoin="round"/>
<path d="M10.7435 14.847L8.59961 18.0899L16.2389 18.4291L15.9675 10.22L10.7435 14.847Z" fill="#E4761B" stroke="#E4761B" stroke-linecap="round" stroke-linejoin="round"/>
<path d="M25.8462 14.847L20.5543 10.125L20.3779 18.4291L28.0036 18.0899L25.8462 14.847Z" fill="#E4761B" stroke="#E4761B" stroke-linecap="round" stroke-linejoin="round"/>
<path d="M11.1777 29.6639L15.764 27.4251L11.8019 24.3314L11.1777 29.6639Z" fill="#E4761B" stroke="#E4761B" stroke-linecap="round" stroke-linejoin="round"/>
<path d="M20.8242 27.4251L25.4241 29.6639L24.7863 24.3314L20.8242 27.4251Z" fill="#E4761B" stroke="#E4761B" stroke-linecap="round" stroke-linejoin="round"/>
<path d="M25.4241 29.6638L20.8242 27.4249L21.1906 30.4236L21.1499 31.6855L25.4241 29.6638Z" fill="#D7C1B3" stroke="#D7C1B3" stroke-linecap="round" stroke-linejoin="round"/>
<path d="M11.1758 29.6638L15.45 31.6856L15.4228 30.4237L15.762 27.425L11.1758 29.6638Z" fill="#D7C1B3" stroke="#D7C1B3" stroke-linecap="round" stroke-linejoin="round"/>
<path d="M15.5188 22.3505L11.6924 21.2243L14.3926 19.9895L15.5188 22.3505Z" fill="#233447" stroke="#233447" stroke-linecap="round" stroke-linejoin="round"/>
<path d="M21.0674 22.3505L22.1936 19.9895L24.9074 21.2243L21.0674 22.3505Z" fill="#233447" stroke="#233447" stroke-linecap="round" stroke-linejoin="round"/>
<path d="M11.1768 29.6641L11.8281 24.1552L7.58105 24.2773L11.1768 29.6641Z" fill="#CD6116" stroke="#CD6116" stroke-linecap="round" stroke-linejoin="round"/>
<path d="M24.7734 24.1552L25.4247 29.6641L29.0205 24.2773L24.7734 24.1552Z" fill="#CD6116" stroke="#CD6116" stroke-linecap="round" stroke-linejoin="round"/>
<path d="M28.0017 18.0898L20.376 18.429L21.0816 22.3504L22.2078 19.9894L24.9215 21.2242L28.0017 18.0898Z" fill="#CD6116" stroke="#CD6116" stroke-linecap="round" stroke-linejoin="round"/>
<path d="M11.6914 21.2242L14.4051 19.9894L15.5178 22.3504L16.2369 18.429L8.59766 18.0898L11.6914 21.2242Z" fill="#CD6116" stroke="#CD6116" stroke-linecap="round" stroke-linejoin="round"/>
<path d="M8.59863 18.0899L11.8009 24.3316L11.6923 21.2243L8.59863 18.0899Z" fill="#E4751F" stroke="#E4751F" stroke-linecap="round" stroke-linejoin="round"/>
<path d="M24.9218 21.2242L24.7861 24.3314L28.0019 18.0898L24.9218 21.2242Z" fill="#E4751F" stroke="#E4751F" stroke-linecap="round" stroke-linejoin="round"/>
<path d="M16.2377 18.4291L15.5186 22.3505L16.4141 26.9775L16.6176 20.8851L16.2377 18.4291Z" fill="#E4751F" stroke="#E4751F" stroke-linecap="round" stroke-linejoin="round"/>
<path d="M20.3761 18.4291L20.0098 20.8715L20.1726 26.9775L21.0817 22.3505L20.3761 18.4291Z" fill="#E4751F" stroke="#E4751F" stroke-linecap="round" stroke-linejoin="round"/>
<path d="M21.082 22.3506L20.1729 26.9775L20.8242 27.4253L24.7863 24.3316L24.9219 21.2243L21.082 22.3506Z" fill="#F6851B" stroke="#F6851B" stroke-linecap="round" stroke-linejoin="round"/>
<path d="M11.6924 21.2243L11.8009 24.3316L15.763 27.4253L16.4143 26.9775L15.5188 22.3506L11.6924 21.2243Z" fill="#F6851B" stroke="#F6851B" stroke-linecap="round" stroke-linejoin="round"/>
<path d="M21.1489 31.6858L21.1896 30.4239L20.8504 30.1254H15.7349L15.4228 30.4239L15.45 31.6858L11.1758 29.664L12.6684 30.8852L15.6942 32.9884H20.8911L23.9305 30.8852L25.4231 29.664L21.1489 31.6858Z" fill="#C0AD9E" stroke="#C0AD9E" stroke-linecap="round" stroke-linejoin="round"/>
<path d="M20.8242 27.4254L20.1729 26.9776H16.4144L15.763 27.4254L15.4238 30.4241L15.7359 30.1256H20.8514L21.1906 30.4241L20.8242 27.4254Z" fill="#161616" stroke="#161616" stroke-linecap="round" stroke-linejoin="round"/>
<path d="M34.4473 11.5903L35.6007 6.05421L33.8774 0.911621L20.8242 10.5998L25.8447 14.8468L32.9412 16.9228L34.5152 15.0911L33.8367 14.6026L34.9222 13.6121L34.081 12.9607L35.1665 12.133L34.4473 11.5903Z" fill="#763D16" stroke="#763D16" stroke-linecap="round" stroke-linejoin="round"/>
<path d="M1 6.05457L2.15335 11.5907L1.42063 12.1334L2.50614 12.9611L1.67844 13.6124L2.76395 14.6029L2.08551 15.0914L3.64592 16.9232L10.7424 14.8472L15.7629 10.6001L2.70967 0.91198L1 6.05457Z" fill="#763D16" stroke="#763D16" stroke-linecap="round" stroke-linejoin="round"/>
<path d="M32.941 16.9228L25.8445 14.8468L28.0019 18.0898L24.7861 24.3314L29.0196 24.2771H35.3291L32.941 16.9228Z" fill="#F6851B" stroke="#F6851B" stroke-linecap="round" stroke-linejoin="round"/>
<path d="M10.7436 14.8468L3.64711 16.9228L1.28613 24.2771H7.58207L11.802 24.3314L8.59974 18.0898L10.7436 14.8468Z" fill="#F6851B" stroke="#F6851B" stroke-linecap="round" stroke-linejoin="round"/>
<path d="M20.3753 18.4293L20.8231 10.6L22.8855 5.02325H13.7266L15.7619 10.6L16.2368 18.4293L16.3996 20.8988L16.4132 26.9776H20.1718L20.1989 20.8988L20.3753 18.4293Z" fill="#F6851B" stroke="#F6851B" stroke-linecap="round" stroke-linejoin="round"/>
</svg>
