<svg width="77" height="72" viewBox="0 0 77 72" fill="none" xmlns="http://www.w3.org/2000/svg">
<path d="M72.6433 1L43.2227 22.8511L48.6633 9.95927L72.6433 1Z" fill="#608AFA" stroke="#608AFA" stroke-linecap="round" stroke-linejoin="round"/>
<path d="M4.72656 1L33.9107 23.0581L28.7362 9.95927L4.72656 1Z" fill="#618BFA" stroke="#618BFA" stroke-linecap="round" stroke-linejoin="round"/>
<path d="M62.0583 51.6509L54.2227 63.6557L70.988 68.2684L75.8077 51.917L62.0583 51.6509Z" fill="#618BFA" stroke="#618BFA" stroke-linecap="round" stroke-linejoin="round"/>
<path d="M1.62109 51.917L6.4112 68.2684L23.1766 63.6557L15.3409 51.6509L1.62109 51.917Z" fill="#618BFA" stroke="#618BFA" stroke-linecap="round" stroke-linejoin="round"/>
<path d="M22.2304 31.3669L17.5586 38.4338L34.2057 39.173L33.6143 21.2841L22.2304 31.3669Z" fill="#618BFA" stroke="#618BFA" stroke-linecap="round" stroke-linejoin="round"/>
<path d="M55.1407 31.3669L43.609 21.077L43.2246 39.173L59.8421 38.4338L55.1407 31.3669Z" fill="#618BFA" stroke="#618BFA" stroke-linecap="round" stroke-linejoin="round"/>
<path d="M23.1758 63.6557L33.1699 58.7769L24.5359 52.0353L23.1758 63.6557Z" fill="#618BFA" stroke="#618BFA" stroke-linecap="round" stroke-linejoin="round"/>
<path d="M44.1992 58.7769L54.223 63.6557L52.8332 52.0353L44.1992 58.7769Z" fill="#618BFA" stroke="#618BFA" stroke-linecap="round" stroke-linejoin="round"/>
<path d="M54.223 63.6557L44.1992 58.7769L44.9976 65.3115L44.9089 68.0614L54.223 63.6557Z" fill="#B4C7FC" stroke="#B4C7FC" stroke-linecap="round" stroke-linejoin="round"/>
<path d="M23.1758 63.6557L32.4899 68.0614L32.4307 65.3115L33.1699 58.7769L23.1758 63.6557Z" fill="#B4C7FC" stroke="#B4C7FC" stroke-linecap="round" stroke-linejoin="round"/>
<path d="M32.6372 47.7183L24.2988 45.2641L30.183 42.5734L32.6372 47.7183Z" fill="#233447" stroke="#233447" stroke-linecap="round" stroke-linejoin="round"/>
<path d="M44.7305 47.7183L47.1847 42.5734L53.0984 45.2641L44.7305 47.7183Z" fill="#233447" stroke="#233447" stroke-linecap="round" stroke-linejoin="round"/>
<path d="M23.1755 63.6558L24.5948 51.651L15.3398 51.9171L23.1755 63.6558Z" fill="#4778FA" stroke="#4778FA" stroke-linecap="round" stroke-linejoin="round"/>
<path d="M52.8027 51.651L54.222 63.6558L62.0577 51.9171L52.8027 51.651Z" fill="#4778FA" stroke="#4778FA" stroke-linecap="round" stroke-linejoin="round"/>
<path d="M59.8402 38.4338L43.2227 39.1731L44.7602 47.7184L47.2144 42.5734L53.1281 45.2642L59.8402 38.4338Z" fill="#4778FA" stroke="#4778FA" stroke-linecap="round" stroke-linejoin="round"/>
<path d="M24.2983 45.2642L30.212 42.5734L32.6366 47.7184L34.2037 39.1731L17.5566 38.4338L24.2983 45.2642Z" fill="#4778FA" stroke="#4778FA" stroke-linecap="round" stroke-linejoin="round"/>
<path d="M17.5586 38.4338L24.5368 52.0354L24.3002 45.2642L17.5586 38.4338Z" fill="#618BFA" stroke="#618BFA" stroke-linecap="round" stroke-linejoin="round"/>
<path d="M53.1297 45.2642L52.834 52.0354L59.8417 38.4338L53.1297 45.2642Z" fill="#618BFA" stroke="#618BFA" stroke-linecap="round" stroke-linejoin="round"/>
<path d="M34.2058 39.1731L32.6387 47.7184L34.5902 57.8013L35.0337 44.525L34.2058 39.1731Z" fill="#618BFA" stroke="#618BFA" stroke-linecap="round" stroke-linejoin="round"/>
<path d="M43.2241 39.1731L42.4258 44.4954L42.7806 57.8013L44.7617 47.7184L43.2241 39.1731Z" fill="#618BFA" stroke="#618BFA" stroke-linecap="round" stroke-linejoin="round"/>
<path d="M44.7604 47.7183L42.7793 57.8012L44.1986 58.777L52.8326 52.0354L53.1283 45.2642L44.7604 47.7183Z" fill="#7398FB" stroke="#7398FB" stroke-linecap="round" stroke-linejoin="round"/>
<path d="M24.2988 45.2642L24.5354 52.0354L33.1694 58.777L34.5887 57.8012L32.6372 47.7183L24.2988 45.2642Z" fill="#7398FB" stroke="#7398FB" stroke-linecap="round" stroke-linejoin="round"/>
<path d="M44.9087 68.0615L44.9974 65.3116L44.2581 64.6611H33.1108L32.4307 65.3116L32.4899 68.0615L23.1758 63.6558L26.4283 66.3169L33.0221 70.9001H44.3468L50.9702 66.3169L54.2227 63.6558L44.9087 68.0615Z" fill="#96B2FC" stroke="#96B2FC" stroke-linecap="round" stroke-linejoin="round"/>
<path d="M44.1999 58.7769L42.7806 57.8011H34.5901L33.1709 58.7769L32.4316 65.3116L33.1117 64.661H44.2591L44.9983 65.3116L44.1999 58.7769Z" fill="#02164A" stroke="#161616" stroke-linecap="round" stroke-linejoin="round"/>
<path d="M73.886 24.2704L76.3994 12.2065L72.6442 1L44.1992 22.1119L55.1396 31.3669L70.6039 35.8909L74.0339 31.8991L72.5554 30.8347L74.9209 28.6762L73.0877 27.2569L75.4532 25.4532L73.886 24.2704Z" fill="#124ADE" stroke="#124ADE" stroke-linecap="round" stroke-linejoin="round"/>
<path d="M1 12.2065L3.51333 24.2704L1.91663 25.4532L4.28211 27.2569L2.47843 28.6762L4.84391 30.8347L3.36548 31.8991L6.76586 35.8909L22.2302 31.3669L33.1706 22.1119L4.72564 1L1 12.2065Z" fill="#124ADE" stroke="#124ADE" stroke-linecap="round" stroke-linejoin="round"/>
<path d="M70.6047 35.8909L55.1403 31.3669L59.8417 38.4338L52.834 52.0354L62.0594 51.9171H75.8087L70.6047 35.8909Z" fill="#7398FB" stroke="#7398FB" stroke-linecap="round" stroke-linejoin="round"/>
<path d="M22.2304 31.3669L6.76602 35.8909L1.62109 51.9171H15.3409L24.5367 52.0354L17.5585 38.4338L22.2304 31.3669Z" fill="#7398FB" stroke="#7398FB" stroke-linecap="round" stroke-linejoin="round"/>
<path d="M43.223 39.1729L44.1987 22.1119L48.6931 9.95923H28.7344L33.1697 22.1119L34.2046 39.1729L34.5594 44.5544L34.5889 57.8011H42.7794L42.8386 44.5544L43.223 39.1729Z" fill="#7398FB" stroke="#7398FB" stroke-linecap="round" stroke-linejoin="round"/>
</svg>
