<svg width="75" height="45" viewBox="0 0 75 45" fill="none" xmlns="http://www.w3.org/2000/svg">
<path d="M15.3526 8.79202C27.5842 -2.93067 47.4158 -2.93067 59.6476 8.79202L61.6715 10.7317C61.9774 11.025 61.9782 11.5011 61.6728 11.795C61.6723 11.7955 61.672 11.7961 61.6715 11.7966L56.0827 17.1524C55.7773 17.4452 55.2828 17.4452 54.9774 17.1524L52.9508 15.21C44.4175 7.03208 30.5825 7.03208 22.0495 15.21L19.8789 17.2902C19.5735 17.5829 19.0791 17.5829 18.7736 17.2902L13.185 11.9341C12.8789 11.6407 12.8783 11.1647 13.1835 10.8708C13.184 10.8703 13.1845 10.8697 13.185 10.8694L15.3526 8.79202ZM69.5072 18.2412L74.5401 23.0647C75.1523 23.6514 75.1534 24.6035 74.5431 25.1915C74.542 25.1926 74.5412 25.1934 74.5401 25.1945L54.3329 44.561C53.7218 45.1463 52.7332 45.1463 52.1221 44.561L37.7765 30.8124C37.6236 30.6659 37.3767 30.6659 37.2238 30.8124L22.8784 44.561C22.2674 45.1463 21.2787 45.1463 20.6678 44.561L0.45989 25.1943C-0.152165 24.6076 -0.153455 23.6552 0.456981 23.0672C0.457942 23.0664 0.458902 23.0653 0.45989 23.0644L5.49273 18.2412C5.79818 17.9484 6.29258 17.9484 6.59803 18.2412L21.4966 32.5194C21.6494 32.6659 21.8967 32.6659 22.0492 32.5194L36.3944 18.7708C37.0054 18.1852 37.9941 18.1852 38.6051 18.7708L52.9511 32.5194C53.1036 32.6659 53.3509 32.6659 53.5037 32.5194L68.402 18.2412C68.7074 17.9487 69.2018 17.9487 69.5072 18.2412Z" fill="#3B99FC"/>
</svg>
