<?xml version="1.0" encoding="utf-8"?>
<!-- Generator: Adobe Illustrator 24.3.0, SVG Export Plug-In . SVG Version: 6.00 Build 0)  -->
<svg version="1.1" id="Layer_1" xmlns="http://www.w3.org/2000/svg" xmlns:xlink="http://www.w3.org/1999/xlink" x="0px" y="0px"
	 viewBox="0 0 820 360" style="enable-background:new 0 0 820 360;" xml:space="preserve">
<style type="text/css">
	.st0{fill:#FFFFFF;}
	.st1{fill:#110F4C;}
	.st2{fill:url(#SVGID_1_);}
	.st3{fill:url(#SVGID_2_);}
	.st4{opacity:0.5;fill:url(#SVGID_3_);}
	.st5{fill:#F2F2F2;}
	.st6{fill:url(#SVGID_4_);}
	.st7{fill:url(#SVGID_5_);}
	.st8{opacity:0.5;fill:url(#SVGID_6_);}
</style>
<g>
	<rect class="st1" width="820" height="360"/>
	<g>
		<g>
			<g>
				<g>
					<path class="st5" d="M369.26,202.98c-2.37,0-4.76-0.08-7.17-0.23c-2.41-0.15-4.52-0.46-6.33-0.94v-43.46
						c0.95-0.17,1.96-0.33,3.03-0.48c1.08-0.15,2.17-0.27,3.29-0.35c1.12-0.09,2.23-0.15,3.33-0.19c1.1-0.04,2.14-0.06,3.13-0.06
						c2.71,0,5.23,0.2,7.56,0.61c2.32,0.41,4.34,1.09,6.04,2.03c1.7,0.95,3.02,2.2,3.97,3.75c0.95,1.55,1.42,3.47,1.42,5.75
						c0,2.11-0.51,3.92-1.52,5.42c-1.01,1.51-2.42,2.71-4.23,3.62c2.71,0.9,4.71,2.24,6.01,4c1.29,1.77,1.94,4,1.94,6.72
						c0,4.61-1.68,8.06-5.04,10.36C381.33,201.83,376.19,202.98,369.26,202.98z M363.77,175.92h5.75c3.1,0,5.53-0.44,7.3-1.32
						c1.76-0.88,2.65-2.46,2.65-4.75c0-2.15-0.91-3.68-2.74-4.58c-1.83-0.9-4.21-1.36-7.14-1.36c-1.25,0-2.36,0.02-3.33,0.06
						c-0.97,0.04-1.8,0.11-2.49,0.19V175.92z M363.77,182.31v13.63c0.9,0.09,1.87,0.15,2.91,0.19c1.03,0.04,1.98,0.06,2.84,0.06
						c1.68,0,3.24-0.11,4.68-0.32c1.44-0.21,2.69-0.59,3.75-1.13c1.05-0.54,1.89-1.26,2.52-2.16c0.62-0.9,0.94-2.07,0.94-3.49
						c0-2.54-0.93-4.3-2.78-5.29c-1.85-0.99-4.41-1.49-7.68-1.49H363.77z"/>
					<path class="st5" d="M406.51,158.81c0,1.46-0.47,2.63-1.42,3.49c-0.95,0.86-2.07,1.29-3.36,1.29c-1.33,0-2.48-0.43-3.42-1.29
						c-0.95-0.86-1.42-2.02-1.42-3.49c0-1.51,0.47-2.69,1.42-3.55c0.95-0.86,2.09-1.29,3.42-1.29c1.29,0,2.41,0.43,3.36,1.29
						C406.04,156.12,406.51,157.3,406.51,158.81z M405.68,202.46h-7.81v-33.77h7.81V202.46z"/>
					<path class="st5" d="M415.23,159.78l7.81-1.29v10.2h12.01v6.52h-12.01v13.75c0,2.71,0.43,4.65,1.29,5.81
						c0.86,1.16,2.32,1.74,4.39,1.74c1.42,0,2.68-0.15,3.78-0.45c1.1-0.3,1.97-0.58,2.62-0.84l1.29,6.2
						c-0.9,0.39-2.09,0.79-3.55,1.19c-1.46,0.41-3.19,0.61-5.17,0.61c-2.41,0-4.42-0.32-6.04-0.97c-1.61-0.65-2.9-1.58-3.84-2.81
						c-0.95-1.23-1.61-2.71-2-4.46c-0.39-1.74-0.58-3.73-0.58-5.97V159.78z"/>
					<path class="st5" d="M469.93,199.04c0,5.38-1.37,9.32-4.1,11.82c-2.73,2.5-6.92,3.75-12.56,3.75c-2.07,0-4.08-0.17-6.04-0.52
						c-1.96-0.35-3.74-0.8-5.33-1.36l1.42-6.65c1.33,0.56,2.85,1.01,4.55,1.36c1.7,0.34,3.54,0.52,5.52,0.52
						c3.14,0,5.38-0.65,6.72-1.94c1.33-1.29,2-3.21,2-5.75v-1.29c-0.77,0.39-1.8,0.77-3.07,1.16c-1.27,0.39-2.72,0.58-4.36,0.58
						c-2.15,0-4.12-0.34-5.91-1.03c-1.79-0.69-3.32-1.7-4.58-3.03c-1.27-1.33-2.26-3-2.97-5c-0.71-2-1.07-4.32-1.07-6.94
						c0-2.45,0.38-4.71,1.13-6.78c0.75-2.07,1.85-3.83,3.29-5.3c1.44-1.46,3.2-2.6,5.26-3.42c2.07-0.82,4.41-1.23,7.04-1.23
						c2.54,0,4.95,0.19,7.23,0.58c2.28,0.39,4.22,0.8,5.81,1.23V199.04z M448.16,184.7c0,3.32,0.72,5.74,2.16,7.26
						c1.44,1.53,3.3,2.29,5.59,2.29c1.25,0,2.42-0.17,3.52-0.52c1.1-0.34,1.99-0.75,2.68-1.23v-17.5c-0.56-0.13-1.25-0.25-2.07-0.36
						c-0.82-0.11-1.85-0.16-3.1-0.16c-2.84,0-5.02,0.94-6.52,2.81C448.92,179.18,448.16,181.65,448.16,184.7z"/>
					<path class="st5" d="M478,185.74c0-2.97,0.44-5.57,1.32-7.81c0.88-2.24,2.06-4.1,3.52-5.59c1.46-1.49,3.14-2.6,5.04-3.36
						c1.89-0.75,3.83-1.13,5.81-1.13c4.65,0,8.28,1.44,10.88,4.33c2.6,2.88,3.91,7.19,3.91,12.91c0,0.43-0.01,0.91-0.03,1.45
						c-0.02,0.54-0.05,1.02-0.1,1.45h-22.28c0.21,2.71,1.17,4.81,2.87,6.3c1.7,1.49,4.16,2.23,7.39,2.23c1.89,0,3.63-0.17,5.2-0.52
						c1.57-0.34,2.81-0.71,3.71-1.1l1.03,6.39c-0.43,0.22-1.02,0.44-1.78,0.68c-0.75,0.24-1.61,0.45-2.58,0.65
						c-0.97,0.19-2.01,0.36-3.13,0.48c-1.12,0.13-2.26,0.19-3.42,0.19c-2.97,0-5.55-0.44-7.75-1.32c-2.2-0.88-4-2.11-5.42-3.68
						c-1.42-1.57-2.48-3.42-3.16-5.55C478.34,190.61,478,188.28,478,185.74z M500.66,182.25c0-1.08-0.15-2.1-0.45-3.07
						c-0.3-0.97-0.74-1.81-1.32-2.52c-0.58-0.71-1.29-1.27-2.13-1.68c-0.84-0.41-1.84-0.61-3-0.61c-1.21,0-2.26,0.23-3.16,0.68
						c-0.9,0.45-1.67,1.04-2.29,1.78c-0.62,0.73-1.11,1.57-1.45,2.52c-0.35,0.95-0.58,1.92-0.71,2.91H500.66z"/>
					<path class="st5" d="M527.98,167.85c2.58,0,4.76,0.32,6.52,0.97c1.76,0.65,3.17,1.55,4.23,2.71c1.05,1.16,1.81,2.57,2.26,4.23
						c0.45,1.66,0.68,3.48,0.68,5.46v20.47c-1.21,0.26-3.03,0.57-5.46,0.94c-2.43,0.37-5.18,0.55-8.23,0.55
						c-2.02,0-3.87-0.19-5.55-0.58c-1.68-0.39-3.11-1.01-4.29-1.87c-1.18-0.86-2.11-1.98-2.78-3.36c-0.67-1.38-1-3.08-1-5.1
						c0-1.94,0.38-3.57,1.13-4.91c0.75-1.33,1.78-2.42,3.07-3.26c1.29-0.84,2.79-1.44,4.49-1.81c1.7-0.37,3.48-0.55,5.33-0.55
						c0.86,0,1.76,0.05,2.71,0.16c0.95,0.11,1.96,0.29,3.04,0.55v-1.29c0-0.9-0.11-1.76-0.32-2.58c-0.22-0.82-0.59-1.54-1.13-2.16
						c-0.54-0.62-1.25-1.11-2.13-1.45c-0.88-0.34-1.99-0.52-3.33-0.52c-1.81,0-3.47,0.13-4.97,0.39c-1.51,0.26-2.73,0.56-3.68,0.9
						l-0.97-6.33c0.99-0.34,2.43-0.69,4.33-1.03C523.8,168.02,525.82,167.85,527.98,167.85z M528.62,196.97
						c2.41,0,4.24-0.13,5.49-0.39v-8.65c-0.43-0.13-1.06-0.26-1.87-0.39c-0.82-0.13-1.72-0.19-2.71-0.19
						c-0.86,0-1.73,0.06-2.62,0.19c-0.88,0.13-1.68,0.37-2.39,0.71c-0.71,0.35-1.28,0.83-1.71,1.45c-0.43,0.62-0.65,1.41-0.65,2.36
						c0,1.85,0.58,3.13,1.74,3.84C525.07,196.62,526.64,196.97,528.62,196.97z"/>
					<path class="st5" d="M570.47,175.73c-0.65-0.21-1.54-0.44-2.68-0.68c-1.14-0.24-2.46-0.35-3.97-0.35
						c-0.86,0-1.78,0.09-2.74,0.26c-0.97,0.17-1.65,0.32-2.03,0.45v27.06h-7.81V170.3c1.51-0.56,3.39-1.09,5.65-1.58
						c2.26-0.49,4.77-0.74,7.52-0.74c0.52,0,1.12,0.03,1.81,0.1c0.69,0.06,1.38,0.15,2.07,0.26c0.69,0.11,1.36,0.24,2,0.39
						c0.65,0.15,1.16,0.29,1.55,0.42L570.47,175.73z"/>
				</g>
				<linearGradient id="SVGID_1_" gradientUnits="userSpaceOnUse" x1="425.3098" y1="188.735" x2="394.7668" y2="149.7079">
					<stop  offset="0" style="stop-color:#007FEF"/>
					<stop  offset="1" style="stop-color:#00E3B6"/>
				</linearGradient>
				<circle class="st2" cx="401.77" cy="158.65" r="6.28"/>
			</g>
		</g>
		<linearGradient id="SVGID_2_" gradientUnits="userSpaceOnUse" x1="322.8008" y1="215.2854" x2="259.141" y2="131.684">
			<stop  offset="0" style="stop-color:#007FEF"/>
			<stop  offset="1" style="stop-color:#00E3B6"/>
		</linearGradient>
		<path class="st3" d="M343.69,185.97v-11.94l-12.91-2.15c-0.87-3.77-2.36-7.41-4.46-10.78l7.6-10.64l-8.44-8.44l-10.64,7.6
			c-3.38-2.11-7.02-3.59-10.78-4.46l-2.15-12.91l-11.94,0l-2.16,12.91c-0.05,0.01-0.1,0.03-0.15,0.04v13.25
			c0.04-0.02,0.09-0.04,0.13-0.05v7.87c0,0.07-0.03,0.15-0.08,0.2l-0.05,0.05l-7.23,6.93c-0.05,0.05-0.12,0.08-0.19,0.08h-6.47
			h-0.93v-26.88l-6.46-4.61l-8.44,8.44l7.6,10.64c-2.1,3.38-3.58,7.02-4.46,10.79l-12.91,2.16l0,11.94l12.91,2.15
			c0.87,3.76,2.35,7.41,4.46,10.78l-7.6,10.64l8.44,8.44l10.64-7.6c3.38,2.11,7.02,3.59,10.78,4.46l2.14,12.84l0.01,0.07l11.94,0
			l0.01-0.07l2.14-12.84c3.76-0.87,7.41-2.35,10.78-4.46l10.64,7.6l8.44-8.44l-7.6-10.64c2.1-3.37,3.59-7.02,4.46-10.78
			L343.69,185.97z M282.32,198.65l5.25-5.17c0.24,0.07,0.5,0.1,0.75,0.1c1.59,0,2.88-1.29,2.88-2.88c0-1.59-1.29-2.88-2.88-2.88
			c-1.59,0-2.88,1.29-2.88,2.88c0,0.28,0.04,0.56,0.12,0.83l-5.39,5.34c-4.51-4.21-7.34-10.21-7.34-16.88v-3.71h0.3h7.77
			c0.36,0,0.7-0.14,0.96-0.39l5.79-5.55l2.49-2.39c0.27-0.26,0.43-0.63,0.43-1v-9.43c1.72-0.41,3.51-0.63,5.35-0.63
			c1.3,0,2.58,0.11,3.83,0.32v12.11c0,0.07-0.03,0.14-0.08,0.19l-8.6,8.75c-0.2-0.04-0.4-0.06-0.6-0.06c-1.59,0-2.88,1.29-2.88,2.88
			c0,1.59,1.29,2.88,2.88,2.88s2.88-1.29,2.88-2.88c0-0.33-0.06-0.67-0.17-0.98l8.96-9.12c0.26-0.26,0.4-0.61,0.4-0.97v-12.15
			c5.07,1.52,9.41,4.73,12.36,8.98l-17.02,17.03c-0.26,0.26-0.41,0.61-0.41,0.98v18.18c-0.52,0.03-1.03,0.06-1.56,0.06
			C290.84,203.09,286.13,201.44,282.32,198.65z M311.68,196.88v-4.15c0.91-0.5,1.48-1.45,1.48-2.51c0-1.59-1.29-2.88-2.88-2.88
			c-1.59,0-2.88,1.29-2.88,2.88c0,1.06,0.57,2.01,1.48,2.51v6.38c-2.55,1.73-5.47,2.96-8.61,3.56v-17.13c0-0.07,0.03-0.14,0.08-0.19
			l16.04-16.06c1.68,3.2,2.63,6.84,2.63,10.7C319.03,186.67,316.2,192.67,311.68,196.88z"/>
	</g>
	
		<linearGradient id="SVGID_3_" gradientUnits="userSpaceOnUse" x1="1941.322" y1="1806.113" x2="1742.1719" y2="1392.6599" gradientTransform="matrix(0 -1 1 0 -744.8772 1997.343)">
		<stop  offset="0" style="stop-color:#007FEF"/>
		<stop  offset="1" style="stop-color:#00E3B6"/>
	</linearGradient>
	<path class="st4" d="M801.83,359.44l17.55,0V266.1c-45.5-2.55-81.61-40.24-81.61-86.37c0-46.13,36.11-83.82,81.61-86.37V0.03
		h-17.56l-8.1,48.58c-14.18,3.29-27.89,8.87-40.57,16.78l-40.05-28.6l-31.77,31.77l28.61,40.05c-7.93,12.7-13.5,26.4-16.79,40.58
		l-48.57,8.08v44.93l48.57,8.11c3.3,14.16,8.86,27.87,16.77,40.59l-28.59,40.04l31.77,31.77l40.03-28.59
		c12.71,7.9,26.43,13.47,40.59,16.77L801.83,359.44z"/>
</g>
</svg>
