<?xml version="1.0" encoding="utf-8"?>
<!-- Generator: Adobe Illustrator 24.3.0, SVG Export Plug-In . SVG Version: 6.00 Build 0)  -->
<svg version="1.1" id="Layer_1" xmlns="http://www.w3.org/2000/svg" xmlns:xlink="http://www.w3.org/1999/xlink" x="0px" y="0px"
	 viewBox="0 0 800 800" style="enable-background:new 0 0 800 800;" xml:space="preserve">
<style type="text/css">
	.st0{fill:#FFFFFF;}
	.st1{fill:url(#SVGID_1_);}
	.st2{fill:#110F4C;}
	.st3{fill:url(#SVGID_2_);}
</style>
<g>
	<g>
		<path class="st0" d="M1463.9,800H976.1C889.89,800,820,730.11,820,643.9V156.1C820,69.89,889.89,0,976.1,0h487.8
			c86.21,0,156.1,69.89,156.1,156.1v487.8C1620,730.11,1550.11,800,1463.9,800z"/>
	</g>
	<linearGradient id="SVGID_1_" gradientUnits="userSpaceOnUse" x1="1366.178" y1="591.9679" x2="1019.8409" y2="137.1396">
		<stop  offset="0" style="stop-color:#007FEF"/>
		<stop  offset="1" style="stop-color:#00E3B6"/>
	</linearGradient>
	<path class="st1" d="M1479.81,432.46v-64.95l-70.24-11.71c-4.76-20.5-12.82-40.32-24.27-58.66l41.35-57.91l-45.93-45.93
		l-57.9,41.36c-18.36-11.46-38.17-19.51-58.66-24.27l-11.68-70.21l-64.95,0l-11.73,70.22c-0.27,0.06-0.53,0.14-0.79,0.2v72.08
		c0.24-0.09,0.48-0.19,0.72-0.28v42.79c0,0.4-0.17,0.8-0.46,1.08l-0.26,0.25l-39.36,37.7c-0.28,0.27-0.64,0.41-1.03,0.41h-35.19
		h-5.08V218.39l-35.12-25.07l-45.93,45.93l41.33,57.88c-11.42,18.37-19.47,38.21-24.24,58.69l-70.22,11.73l0,64.95l70.21,11.68
		c4.73,20.47,12.81,40.3,24.27,58.67l-41.36,57.9l45.93,45.93l57.9-41.35c18.37,11.46,38.17,19.51,58.66,24.26l11.64,69.85
		l0.07,0.39l64.95,0l0.07-0.39l11.66-69.86c20.47-4.73,40.3-12.81,58.64-24.25l57.9,41.36l45.93-45.93l-41.35-57.91
		c11.44-18.34,19.51-38.16,24.27-58.66L1479.81,432.46z M1145.93,501.46l28.54-28.14c1.33,0.36,2.7,0.54,4.09,0.54
		c8.63,0,15.65-7.02,15.65-15.65c0-8.63-7.02-15.65-15.65-15.65c-8.63,0-15.65,7.02-15.65,15.65c0,1.55,0.23,3.06,0.68,4.53
		l-29.31,29.07c-24.55-22.93-39.92-55.57-39.92-91.81v-20.19h1.64h42.3c1.95,0,3.81-0.74,5.22-2.1l31.51-30.18l13.57-13
		c1.48-1.41,2.33-3.4,2.33-5.45v-51.31c9.34-2.22,19.07-3.42,29.09-3.42c7.1,0,14.04,0.62,20.82,1.75v65.91
		c0,0.39-0.15,0.76-0.43,1.04l-46.76,47.59c-1.07-0.23-2.16-0.35-3.25-0.35c-8.63,0-15.65,7.02-15.65,15.65
		c0,8.63,7.02,15.65,15.65,15.65c8.63,0,15.65-7.02,15.65-15.65c0-1.82-0.32-3.62-0.93-5.33l48.73-49.59
		c1.39-1.42,2.16-3.3,2.16-5.29v-66.13c27.6,8.24,51.21,25.71,67.26,48.83l-92.58,92.63c-1.42,1.42-2.21,3.32-2.21,5.33v98.91
		c-2.8,0.19-5.62,0.32-8.47,0.32C1192.3,525.64,1166.7,516.65,1145.93,501.46z M1305.68,491.85v-22.59
		c4.96-2.73,8.06-7.9,8.06-13.68c0-8.63-7.02-15.65-15.65-15.65c-8.63,0-15.65,7.02-15.65,15.65c0,5.78,3.1,10.95,8.06,13.68V504
		c-13.88,9.43-29.76,16.13-46.86,19.39V430.2c0-0.4,0.16-0.77,0.44-1.05l87.25-87.36c9.12,17.41,14.31,37.2,14.31,58.22
		C1345.64,436.27,1330.26,468.92,1305.68,491.85z"/>
</g>
<g>
	<g>
		<path class="st2" d="M643.9,800H156.1C69.89,800,0,730.11,0,643.9V156.1C0,69.89,69.89,0,156.1,0h487.8
			C730.11,0,800,69.89,800,156.1v487.8C800,730.11,730.11,800,643.9,800z"/>
	</g>
	<linearGradient id="SVGID_2_" gradientUnits="userSpaceOnUse" x1="546.178" y1="591.9679" x2="199.8409" y2="137.1396">
		<stop  offset="0" style="stop-color:#007FEF"/>
		<stop  offset="1" style="stop-color:#00E3B6"/>
	</linearGradient>
	<path class="st3" d="M659.81,432.46v-64.95l-70.24-11.71c-4.76-20.5-12.82-40.32-24.27-58.66l41.35-57.91l-45.93-45.93l-57.9,41.36
		c-18.36-11.46-38.17-19.51-58.66-24.27l-11.68-70.21l-64.95,0l-11.73,70.22c-0.27,0.06-0.53,0.14-0.79,0.2v72.08
		c0.24-0.09,0.48-0.19,0.72-0.28v42.79c0,0.4-0.17,0.8-0.46,1.08l-0.26,0.25l-39.36,37.7c-0.28,0.27-0.64,0.41-1.03,0.41h-35.19
		h-5.08V218.39l-35.12-25.07l-45.93,45.93l41.33,57.88c-11.42,18.37-19.47,38.21-24.24,58.69l-70.22,11.73l0,64.95l70.21,11.68
		c4.74,20.47,12.81,40.3,24.27,58.67l-41.36,57.9l45.93,45.93l57.9-41.35c18.37,11.46,38.17,19.51,58.66,24.26l11.64,69.85
		l0.07,0.39l64.95,0l0.07-0.39l11.66-69.86c20.47-4.73,40.3-12.81,58.64-24.25l57.9,41.36l45.93-45.93l-41.35-57.91
		c11.44-18.34,19.51-38.16,24.27-58.66L659.81,432.46z M325.93,501.46l28.54-28.14c1.33,0.36,2.7,0.54,4.09,0.54
		c8.63,0,15.65-7.02,15.65-15.65c0-8.63-7.02-15.65-15.65-15.65c-8.63,0-15.65,7.02-15.65,15.65c0,1.55,0.23,3.06,0.68,4.53
		l-29.31,29.07c-24.55-22.93-39.92-55.57-39.92-91.81v-20.19H276h42.3c1.95,0,3.81-0.74,5.22-2.1l31.51-30.18l13.57-13
		c1.48-1.41,2.33-3.4,2.33-5.45v-51.31c9.34-2.22,19.07-3.42,29.09-3.42c7.1,0,14.04,0.62,20.82,1.75v65.91
		c0,0.39-0.15,0.76-0.43,1.04l-46.76,47.59c-1.07-0.23-2.16-0.35-3.25-0.35c-8.63,0-15.65,7.02-15.65,15.65
		c0,8.63,7.02,15.65,15.65,15.65c8.63,0,15.65-7.02,15.65-15.65c0-1.82-0.32-3.62-0.93-5.33l48.73-49.59
		c1.39-1.42,2.16-3.3,2.16-5.29v-66.13c27.6,8.24,51.21,25.71,67.26,48.83l-92.58,92.63c-1.42,1.42-2.21,3.32-2.21,5.33v98.91
		c-2.8,0.19-5.62,0.32-8.47,0.32C372.3,525.64,346.7,516.65,325.93,501.46z M485.68,491.85v-22.59c4.96-2.73,8.06-7.9,8.06-13.68
		c0-8.63-7.02-15.65-15.65-15.65c-8.63,0-15.65,7.02-15.65,15.65c0,5.78,3.1,10.95,8.06,13.68V504
		c-13.88,9.43-29.76,16.13-46.86,19.39V430.2c0-0.4,0.16-0.77,0.44-1.05l87.25-87.36c9.12,17.41,14.31,37.2,14.31,58.22
		C525.64,436.27,510.26,468.92,485.68,491.85z"/>
</g>
</svg>
