<svg width="21" height="12" viewBox="0 0 21 12" fill="none" xmlns="http://www.w3.org/2000/svg">
<path d="M5.92273 0C9.19378 0 11.8453 2.68644 11.8453 6.0001C11.8453 9.31376 9.19357 12 5.92273 12C2.65189 12 0 9.31376 0 6.0001C0 2.68644 2.65169 0 5.92273 0ZM15.3809 0.35147C17.0164 0.35147 18.3423 2.88019 18.3423 6.0001H18.3425C18.3425 9.1192 17.0166 11.6487 15.3811 11.6487C13.7456 11.6487 12.4197 9.1192 12.4197 6.0001C12.4197 2.881 13.7454 0.35147 15.3809 0.35147ZM19.9585 0.939819C20.5336 0.939819 21 3.20535 21 6.0001C21 8.79405 20.5338 11.0604 19.9585 11.0604C19.3832 11.0604 18.9172 8.79465 18.9172 6.0001C18.9172 3.20555 19.3834 0.939819 19.9585 0.939819Z" fill="url(#paint0_linear_436_418)"/>
<defs>
<linearGradient id="paint0_linear_436_418" x1="16.4084" y1="10.4339" x2="10.3365" y2="-3.5188" gradientUnits="userSpaceOnUse">
<stop stop-color="#007FEF"/>
<stop offset="1" stop-color="#00E3B6"/>
</linearGradient>
</defs>
</svg>
