<svg width="21" height="16" viewBox="0 0 21 16" fill="none" xmlns="http://www.w3.org/2000/svg">
<path d="M6.7918 16C14.3371 16 18.4652 9.84369 18.4652 4.50658C18.4652 4.33351 18.4613 4.15659 18.4535 3.98352C19.2566 3.41173 19.9496 2.70348 20.5 1.89206C19.7521 2.21968 18.958 2.43365 18.1449 2.52665C19.0011 2.02137 19.6421 1.22761 19.9492 0.292501C19.1438 0.762466 18.263 1.09399 17.3445 1.27285C16.7257 0.625448 15.9075 0.196792 15.0164 0.0531537C14.1253 -0.0904844 13.211 0.0588966 12.4148 0.478201C11.6186 0.897505 10.9848 1.56338 10.6115 2.37287C10.2382 3.18236 10.1462 4.09039 10.3496 4.95656C8.71874 4.87598 7.12328 4.45886 5.66665 3.73224C4.21002 3.00561 2.92474 1.98571 1.89414 0.738639C1.37033 1.62782 1.21005 2.68001 1.44586 3.68136C1.68167 4.68271 2.29589 5.5581 3.16367 6.12959C2.51219 6.10923 1.87498 5.93653 1.30469 5.62577V5.67576C1.3041 6.60889 1.63175 7.51342 2.23192 8.2356C2.8321 8.95777 3.66777 9.45302 4.59687 9.63716C3.99338 9.79973 3.35999 9.82342 2.7457 9.70638C3.00788 10.5089 3.51798 11.2108 4.20481 11.7141C4.89164 12.2174 5.72093 12.497 6.57695 12.514C5.12369 13.6379 3.32848 14.2476 1.48047 14.2447C1.15274 14.2442 0.825333 14.2244 0.5 14.1855C2.37738 15.3713 4.56128 16.0011 6.7918 16Z" fill="url(#paint0_linear_436_250)"/>
<defs>
<linearGradient id="paint0_linear_436_250" x1="16.1271" y1="13.9118" x2="6.29565" y2="-2.2251" gradientUnits="userSpaceOnUse">
<stop stop-color="#007FEF"/>
<stop offset="1" stop-color="#00E3B6"/>
</linearGradient>
</defs>
</svg>
