<svg width="56" height="54" viewBox="0 0 56 54" fill="none"
  xmlns="http://www.w3.org/2000/svg">
  <rect width="55.2273" height="54" rx="27" fill="url(#paint0_linear_36_695)"/>
  <path d="M45.409 29.1481V24.8518L40.7639 24.0775C40.45 22.7215 39.9165 21.4115 39.159 20.1977L41.8938 16.3682L38.8577 13.3317L35.0286 16.0668C33.815 15.3093 32.5052 14.7756 31.1493 14.4617L30.3772 9.81812H26.0815L25.3052 14.4617C25.2884 14.4659 25.2696 14.4701 25.2529 14.4743V19.2414C25.2696 19.2351 25.2843 19.2288 25.301 19.2225V22.0518C25.301 22.079 25.2905 22.1041 25.2696 22.123L25.2529 22.1397L22.6499 24.6321C22.6311 24.6488 22.6081 24.6593 22.5809 24.6593H20.2541H19.9172V14.9891L17.5947 13.3317L14.5586 16.3682L17.2913 20.1956C16.5359 21.4115 16.0044 22.7236 15.6885 24.0775L11.0454 24.8539V29.1501L15.6885 29.9223C16.0023 31.2763 16.5359 32.5884 17.2933 33.8021L14.5586 37.6317L17.5947 40.6682L21.4238 37.9331C22.6395 38.6906 23.9472 39.2221 25.3031 39.5381L26.0731 44.1566L26.0773 44.1818H30.373L30.3772 44.1566L31.1493 39.536C32.5031 39.2221 33.815 38.6885 35.0265 37.9331L38.8556 40.6682L41.8917 37.6317L39.1569 33.8021C39.9144 32.5884 40.4479 31.2784 40.7618 29.9223L45.409 29.1481ZM23.3299 33.7122L25.2173 31.8518C25.3052 31.8748 25.3951 31.8873 25.4872 31.8873C26.0584 31.8873 26.523 31.4228 26.523 30.8515C26.523 30.2802 26.0584 29.8156 25.4872 29.8156C24.916 29.8156 24.4515 30.2802 24.4515 30.8515C24.4515 30.954 24.4661 31.0545 24.4954 31.1507L22.5578 33.0739C20.9341 31.5567 19.9172 29.3992 19.9172 27.001V25.6659H20.026H22.8236C22.9533 25.6659 23.0747 25.6156 23.1688 25.5277L25.2529 23.5313L26.1505 22.6713C26.2489 22.5771 26.3053 22.4473 26.3053 22.3113V18.917C26.9226 18.7705 27.5671 18.691 28.2283 18.691C28.697 18.691 29.1573 18.7329 29.6051 18.8061V23.1651C29.6051 23.1902 29.5946 23.2154 29.5758 23.2342L26.4832 26.3816C26.4121 26.3669 26.3409 26.3585 26.2677 26.3585C25.6965 26.3585 25.2319 26.8231 25.2319 27.3944C25.2319 27.9657 25.6965 28.4303 26.2677 28.4303C26.8389 28.4303 27.3034 27.9657 27.3034 27.3944C27.3034 27.2751 27.2825 27.1537 27.2407 27.0428L30.463 23.7636C30.555 23.6695 30.6053 23.546 30.6053 23.4142V19.0405C32.4298 19.5846 33.9908 20.7418 35.0537 22.2695L28.9313 28.3947C28.8372 28.4889 28.7849 28.6144 28.7849 28.7484V35.29C28.5986 35.3026 28.4124 35.311 28.2241 35.311C26.3974 35.311 24.7047 34.7166 23.3299 33.7122ZM33.8945 33.076V31.5818C34.223 31.4019 34.4281 31.0587 34.4281 30.6778C34.4281 30.1065 33.9636 29.6419 33.3923 29.6419C32.8211 29.6419 32.3566 30.1065 32.3566 30.6778C32.3566 31.0608 32.5617 31.4019 32.8902 31.5818V33.8796C31.9716 34.5032 30.9233 34.9468 29.7913 35.1624V28.9995C29.7913 28.9723 29.8018 28.9493 29.8206 28.9304L35.5894 23.1526C36.192 24.3035 36.5351 25.6135 36.5351 27.0031C36.5372 29.3992 35.5203 31.5588 33.8945 33.076Z" fill="white"/>
  <defs>
    <linearGradient id="paint0_linear_36_695" x1="43.152" y1="46.9524" x2="7.37952" y2="-1.08766" gradientUnits="userSpaceOnUse">
      <stop stop-color="#007FEF"/>
      <stop offset="1" stop-color="#00E3B6"/>
    </linearGradient>
  </defs>
</svg>
