<svg width="44" height="45" viewBox="0 0 44 45" fill="none"
  xmlns="http://www.w3.org/2000/svg">
  <path d="M44 22.4999C44 34.6502 34.1504 44.5 22.0001 44.5C9.84973 44.5 0 34.6502 0 22.4999C0 10.3497 9.84973 0.5 22.0001 0.5C34.1503 0.5 44 10.3497 44 22.4999Z" fill="#93A6F9"/>
  <path d="M21.7278 8.75L21.5389 9.39181V28.0157L21.7278 28.2041L30.3728 23.0941L21.7278 8.75Z" fill="white"/>
  <path d="M21.7282 8.75L13.0833 23.0941L21.7282 28.2042V19.1648V8.75Z" fill="white"/>
  <path d="M21.7296 30.6883L21.6232 30.818V37.4523L21.7296 37.763L30.3798 25.5809L21.7296 30.6883Z" fill="white"/>
  <path d="M21.7275 37.7631V30.6883L13.0825 25.5809L21.7275 37.7631Z" fill="white"/>
</svg>
