<svg width="18" height="16" viewBox="0 0 18 16" fill="none" xmlns="http://www.w3.org/2000/svg">
<path d="M5.99665 3.22874V15.0111C5.99665 15.3225 5.84598 15.6138 5.50446 15.6138C5.38393 15.6138 5.27344 15.5837 5.17299 15.5334L0.502232 13.193C0.220982 13.0524 0 12.6908 0 12.3895V0.938564C0 0.687448 0.120536 0.456421 0.391741 0.456421C0.552455 0.456421 0.69308 0.536778 0.833705 0.607091L5.96652 3.17852C5.97656 3.18856 5.99665 3.2187 5.99665 3.22874ZM6.63951 4.24325L12.0033 12.9419L6.63951 10.27V4.24325ZM18 4.42405V15.0111C18 15.3426 17.8092 15.5736 17.4777 15.5736C17.3069 15.5736 17.1462 15.5234 17.0056 15.443L12.5759 13.2332L18 4.42405ZM17.9699 3.2187C17.9699 3.25888 12.7768 11.6863 12.375 12.3292L8.45759 5.96089L11.7121 0.667358C11.8225 0.486555 12.0234 0.386108 12.2344 0.386108C12.3248 0.386108 12.4152 0.406198 12.4955 0.446376L17.9297 3.15843C17.9498 3.16847 17.9699 3.18856 17.9699 3.2187Z" fill="#0197E2"/>
</svg>
