<svg width="18" height="18" viewBox="0 0 18 18" fill="none" xmlns="http://www.w3.org/2000/svg">
<path d="M11.9431 13.1283L13.4196 6.16741C13.5502 5.55469 13.1987 5.31362 12.7969 5.46429L4.1183 8.80915C3.52567 9.04018 3.53571 9.37165 4.01786 9.52232L6.23772 10.2154L11.3906 6.97098C11.6317 6.81027 11.8527 6.90067 11.6719 7.06138L7.50335 10.8281L7.34263 13.1183C7.57366 13.1183 7.67411 13.0179 7.79464 12.8973L8.87946 11.8527L11.1295 13.51C11.5413 13.7411 11.8326 13.6205 11.9431 13.1283ZM18 9C18 13.9721 13.9721 18 9 18C4.0279 18 0 13.9721 0 9C0 4.0279 4.0279 0 9 0C13.9721 0 18 4.0279 18 9Z" fill="#0197E2"/>
</svg>
