<svg width="16" height="14" viewBox="0 0 16 14" fill="none" xmlns="http://www.w3.org/2000/svg">
<path d="M15.9153 2.0982C15.4734 2.74105 14.9209 3.3136 14.2881 3.77565C14.2981 3.91628 14.2981 4.0569 14.2981 4.19753C14.2981 8.48659 11.0336 13.4286 5.0671 13.4286C3.22893 13.4286 1.52134 12.8962 0.0849609 11.9721C0.346122 12.0022 0.597238 12.0123 0.868443 12.0123C2.38518 12.0123 3.78139 11.5 4.89634 10.6261C3.47001 10.596 2.27469 9.66181 1.86286 8.3761C2.06376 8.40623 2.26465 8.42632 2.47559 8.42632C2.76688 8.42632 3.05818 8.38614 3.32938 8.31583C1.84277 8.01449 0.727818 6.70869 0.727818 5.13168V5.0915C1.15974 5.33257 1.66197 5.48324 2.19434 5.50333C1.32045 4.92074 0.747907 3.92632 0.747907 2.80132C0.747907 2.19864 0.908622 1.64619 1.18987 1.16405C2.78697 3.1328 5.18764 4.41851 7.8796 4.55913C7.82938 4.31806 7.79925 4.06695 7.79925 3.81583C7.79925 2.02788 9.24568 0.571411 11.0437 0.571411C11.9778 0.571411 12.8216 0.963152 13.4142 1.59596C14.1475 1.45534 14.8506 1.18413 15.4734 0.812483C15.2323 1.56583 14.72 2.19864 14.047 2.60043C14.6999 2.53012 15.3327 2.34931 15.9153 2.0982Z" fill="#0197E2"/>
</svg>
